<svg xmlns="http://www.w3.org/2000/svg" viewBox="0 0 82.46 82.46"><defs><style>.cls-1{fill:none;stroke:#000;stroke-linecap:round;stroke-linejoin:round;stroke-width:0.71px;}</style></defs><title>Risorsa 3</title><g id="Livello_2" data-name="Livello 2"><g id="Livello_1-2" data-name="Livello 1"><g id="CIRCLE"><path class="cls-1" d="M82.11,41.23A40.88,40.88,0,1,1,41.23.35,40.88,40.88,0,0,1,82.11,41.23Z"/></g><g id="CIRCLE-2" data-name="CIRCLE"><path class="cls-1" d="M81.36,41.23A40.13,40.13,0,1,1,41.23,1.1,40.13,40.13,0,0,1,81.36,41.23Z"/></g><g id="CIRCLE-3" data-name="CIRCLE"><path class="cls-1" d="M82.11,41.23A40.88,40.88,0,1,1,41.23.35,40.88,40.88,0,0,1,82.11,41.23Z"/></g><g id="CIRCLE-4" data-name="CIRCLE"><path class="cls-1" d="M81.36,41.23A40.13,40.13,0,1,1,41.23,1.1,40.13,40.13,0,0,1,81.36,41.23Z"/></g><g id="CIRCLE-5" data-name="CIRCLE"><path class="cls-1" d="M81.23,41.23a40,40,0,1,1-40-40,40,40,0,0,1,40,40Z"/></g></g></g></svg>