<svg xmlns="http://www.w3.org/2000/svg" viewBox="0 0 81.7 81.7"><defs><style>.cls-1{fill:none;stroke:#000;stroke-linecap:round;stroke-linejoin:round;stroke-width:0.71px;}</style></defs><title>Risorsa 4</title><g id="Livello_2" data-name="Livello 2"><g id="Livello_1-2" data-name="Livello 1"><g id="LINE"><line class="cls-1" x1="42.12" y1="73.38" x2="42.12" y2="48.33"/></g><g id="ARC"><path class="cls-1" d="M48.33,42.12a6.21,6.21,0,0,0-6.21,6.21"/></g><g id="LINE-2" data-name="LINE"><line class="cls-1" x1="48.33" y1="42.12" x2="73.38" y2="42.12"/></g><g id="ARC-2" data-name="ARC"><path class="cls-1" d="M73.38,42.12a8,8,0,0,0,7.78-9.68"/></g><g id="ARC-3" data-name="ARC"><path class="cls-1" d="M81.16,32.44A40.88,40.88,0,1,0,32.44,81.16"/></g><g id="ARC-4" data-name="ARC"><path class="cls-1" d="M32.44,81.16a8,8,0,0,0,9.68-7.78"/></g><g id="LINE-3" data-name="LINE"><line class="cls-1" x1="41.37" y1="73.38" x2="41.37" y2="48.33"/></g><g id="ARC-5" data-name="ARC"><path class="cls-1" d="M48.33,41.37a7,7,0,0,0-7,7"/></g><g id="LINE-4" data-name="LINE"><line class="cls-1" x1="48.33" y1="41.37" x2="73.38" y2="41.37"/></g><g id="ARC-6" data-name="ARC"><path class="cls-1" d="M73.38,41.37a7.22,7.22,0,0,0,7-8.77"/></g><g id="ARC-7" data-name="ARC"><path class="cls-1" d="M80.43,32.6A40.13,40.13,0,1,0,32.6,80.43"/></g><g id="ARC-8" data-name="ARC"><path class="cls-1" d="M32.6,80.43a7.22,7.22,0,0,0,8.77-7"/></g><g id="LINE-5" data-name="LINE"><line class="cls-1" x1="42.12" y1="73.38" x2="42.12" y2="48.33"/></g><g id="ARC-9" data-name="ARC"><path class="cls-1" d="M48.33,42.12a6.21,6.21,0,0,0-6.21,6.21"/></g><g id="LINE-6" data-name="LINE"><line class="cls-1" x1="48.33" y1="42.12" x2="73.38" y2="42.12"/></g><g id="ARC-10" data-name="ARC"><path class="cls-1" d="M73.38,42.12a8,8,0,0,0,7.78-9.68"/></g><g id="ARC-11" data-name="ARC"><path class="cls-1" d="M81.16,32.44A40.88,40.88,0,1,0,32.44,81.16"/></g><g id="ARC-12" data-name="ARC"><path class="cls-1" d="M32.44,81.16a8,8,0,0,0,9.68-7.78"/></g><g id="LINE-7" data-name="LINE"><line class="cls-1" x1="41.37" y1="73.38" x2="41.37" y2="48.33"/></g><g id="ARC-13" data-name="ARC"><path class="cls-1" d="M32.6,80.43a7.22,7.22,0,0,0,8.77-7"/></g><g id="ARC-14" data-name="ARC"><path class="cls-1" d="M80.43,32.6A40.13,40.13,0,1,0,32.6,80.43"/></g><g id="ARC-15" data-name="ARC"><path class="cls-1" d="M73.38,41.37a7.22,7.22,0,0,0,7-8.77"/></g><g id="LINE-8" data-name="LINE"><line class="cls-1" x1="48.33" y1="41.37" x2="73.38" y2="41.37"/></g><g id="ARC-16" data-name="ARC"><path class="cls-1" d="M48.33,41.37a7,7,0,0,0-7,7"/></g><g id="LINE-9" data-name="LINE"><line class="cls-1" x1="41.24" y1="48.33" x2="41.24" y2="73.38"/></g><g id="ARC-17" data-name="ARC"><path class="cls-1" d="M32.63,80.3a7.09,7.09,0,0,0,8.62-6.92"/></g><g id="ARC-18" data-name="ARC"><path class="cls-1" d="M80.3,32.63A40,40,0,1,0,32.63,80.3"/></g><g id="ARC-19" data-name="ARC"><path class="cls-1" d="M73.38,41.24a7.09,7.09,0,0,0,6.92-8.62"/></g><g id="LINE-10" data-name="LINE"><line class="cls-1" x1="73.38" y1="41.24" x2="48.33" y2="41.24"/></g><g id="ARC-20" data-name="ARC"><path class="cls-1" d="M48.33,41.24a7.09,7.09,0,0,0-7.09,7.09"/></g></g></g></svg>