<svg xmlns="http://www.w3.org/2000/svg" viewBox="0 0 82.46 82.46"><defs><style>.cls-1{fill:none;stroke:#000;stroke-linecap:round;stroke-linejoin:round;stroke-width:0.71px;}</style></defs><title>Risorsa 5</title><g id="Livello_2" data-name="Livello 2"><g id="Livello_1-2" data-name="Livello 1"><g id="ARC"><path class="cls-1" d="M74.14,82.11a8,8,0,0,0,8-8"/></g><g id="LINE"><line class="cls-1" x1="82.11" y1="74.14" x2="82.11" y2="8.32"/></g><g id="ARC-2" data-name="ARC"><path class="cls-1" d="M82.11,8.32a8,8,0,0,0-8-8"/></g><g id="LINE-2" data-name="LINE"><line class="cls-1" x1="74.14" y1="0.35" x2="8.32" y2="0.35"/></g><g id="ARC-3" data-name="ARC"><path class="cls-1" d="M8.32.35a8,8,0,0,0-8,8"/></g><g id="LINE-3" data-name="LINE"><line class="cls-1" x1="0.35" y1="8.32" x2="0.35" y2="74.14"/></g><g id="ARC-4" data-name="ARC"><path class="cls-1" d="M.35,74.14a8,8,0,0,0,8,8"/></g><g id="LINE-4" data-name="LINE"><line class="cls-1" x1="8.32" y1="82.11" x2="74.14" y2="82.11"/></g><g id="ARC-5" data-name="ARC"><path class="cls-1" d="M74.14,81.36a7.22,7.22,0,0,0,7.22-7.22"/></g><g id="LINE-5" data-name="LINE"><line class="cls-1" x1="81.36" y1="74.14" x2="81.36" y2="8.32"/></g><g id="ARC-6" data-name="ARC"><path class="cls-1" d="M81.36,8.32A7.22,7.22,0,0,0,74.14,1.1"/></g><g id="LINE-6" data-name="LINE"><line class="cls-1" x1="74.14" y1="1.1" x2="8.32" y2="1.1"/></g><g id="ARC-7" data-name="ARC"><path class="cls-1" d="M8.32,1.1A7.22,7.22,0,0,0,1.1,8.32"/></g><g id="LINE-7" data-name="LINE"><line class="cls-1" x1="1.1" y1="8.32" x2="1.1" y2="74.14"/></g><g id="ARC-8" data-name="ARC"><path class="cls-1" d="M1.1,74.14a7.22,7.22,0,0,0,7.22,7.22"/></g><g id="LINE-8" data-name="LINE"><line class="cls-1" x1="8.32" y1="81.36" x2="74.14" y2="81.36"/></g><g id="ARC-9" data-name="ARC"><path class="cls-1" d="M74.14,82.11a8,8,0,0,0,8-8"/></g><g id="LINE-9" data-name="LINE"><line class="cls-1" x1="82.11" y1="74.14" x2="82.11" y2="8.32"/></g><g id="ARC-10" data-name="ARC"><path class="cls-1" d="M82.11,8.32a8,8,0,0,0-8-8"/></g><g id="LINE-10" data-name="LINE"><line class="cls-1" x1="74.14" y1="0.35" x2="8.32" y2="0.35"/></g><g id="ARC-11" data-name="ARC"><path class="cls-1" d="M8.32.35a8,8,0,0,0-8,8"/></g><g id="LINE-11" data-name="LINE"><line class="cls-1" x1="0.35" y1="8.32" x2="0.35" y2="74.14"/></g><g id="ARC-12" data-name="ARC"><path class="cls-1" d="M.35,74.14a8,8,0,0,0,8,8"/></g><g id="LINE-12" data-name="LINE"><line class="cls-1" x1="8.32" y1="82.11" x2="74.14" y2="82.11"/></g><g id="ARC-13" data-name="ARC"><path class="cls-1" d="M74.14,81.36a7.22,7.22,0,0,0,7.22-7.22"/></g><g id="LINE-13" data-name="LINE"><line class="cls-1" x1="8.32" y1="81.36" x2="74.14" y2="81.36"/></g><g id="ARC-14" data-name="ARC"><path class="cls-1" d="M1.1,74.14a7.22,7.22,0,0,0,7.22,7.22"/></g><g id="LINE-14" data-name="LINE"><line class="cls-1" x1="1.1" y1="8.32" x2="1.1" y2="74.14"/></g><g id="ARC-15" data-name="ARC"><path class="cls-1" d="M8.32,1.1A7.22,7.22,0,0,0,1.1,8.32"/></g><g id="LINE-15" data-name="LINE"><line class="cls-1" x1="74.14" y1="1.1" x2="8.32" y2="1.1"/></g><g id="ARC-16" data-name="ARC"><path class="cls-1" d="M81.36,8.32A7.22,7.22,0,0,0,74.14,1.1"/></g><g id="LINE-16" data-name="LINE"><line class="cls-1" x1="81.36" y1="74.14" x2="81.36" y2="8.32"/></g><g id="ARC-17" data-name="ARC"><path class="cls-1" d="M74.14,81.23a7.09,7.09,0,0,0,7.09-7.09"/></g><g id="LINE-17" data-name="LINE"><line class="cls-1" x1="74.14" y1="81.23" x2="8.32" y2="81.23"/></g><g id="ARC-18" data-name="ARC"><path class="cls-1" d="M1.23,74.14a7.09,7.09,0,0,0,7.09,7.09"/></g><g id="LINE-18" data-name="LINE"><line class="cls-1" x1="1.23" y1="74.14" x2="1.23" y2="8.32"/></g><g id="ARC-19" data-name="ARC"><path class="cls-1" d="M8.32,1.23A7.09,7.09,0,0,0,1.23,8.32"/></g><g id="LINE-19" data-name="LINE"><line class="cls-1" x1="8.32" y1="1.23" x2="74.14" y2="1.23"/></g><g id="ARC-20" data-name="ARC"><path class="cls-1" d="M81.23,8.32a7.09,7.09,0,0,0-7.09-7.09"/></g><g id="LINE-20" data-name="LINE"><line class="cls-1" x1="81.23" y1="8.32" x2="81.23" y2="74.14"/></g></g></g></svg>