<svg xmlns="http://www.w3.org/2000/svg" viewBox="0 0 83.48 83.48"><defs><style>.cls-1{fill:none;stroke:#000;stroke-linecap:round;stroke-linejoin:round;stroke-width:0.71px;}</style></defs><title>Risorsa 6</title><g id="Livello_2" data-name="Livello 2"><g id="Livello_1-2" data-name="Livello 1"><g id="LINE"><line class="cls-1" x1="75.16" y1="0.35" x2="8.32" y2="0.35"/></g><g id="LINE-2" data-name="LINE"><line class="cls-1" x1="75.16" y1="1.1" x2="8.32" y2="1.1"/></g><g id="LINE-3" data-name="LINE"><line class="cls-1" x1="75.16" y1="0.35" x2="8.32" y2="0.35"/></g><g id="LINE-4" data-name="LINE"><line class="cls-1" x1="75.16" y1="1.1" x2="8.32" y2="1.1"/></g><g id="ARC"><path class="cls-1" d="M83.12,8.32a8,8,0,0,0-8-8"/></g><g id="ARC-2" data-name="ARC"><path class="cls-1" d="M8.32.35a8,8,0,0,0-8,8"/></g><g id="LINE-5" data-name="LINE"><line class="cls-1" x1="0.35" y1="8.32" x2="0.35" y2="75.16"/></g><g id="ARC-3" data-name="ARC"><path class="cls-1" d="M.35,75.16a8,8,0,0,0,8,8"/></g><g id="LINE-6" data-name="LINE"><line class="cls-1" x1="8.32" y1="83.12" x2="34.65" y2="83.12"/></g><g id="ARC-4" data-name="ARC"><path class="cls-1" d="M34.65,83.12a8,8,0,0,0,8-8"/></g><g id="LINE-7" data-name="LINE"><line class="cls-1" x1="42.62" y1="75.16" x2="42.62" y2="48.83"/></g><g id="ARC-5" data-name="ARC"><path class="cls-1" d="M48.83,42.62a6.21,6.21,0,0,0-6.21,6.21"/></g><g id="LINE-8" data-name="LINE"><line class="cls-1" x1="48.83" y1="42.62" x2="75.16" y2="42.62"/></g><g id="ARC-6" data-name="ARC"><path class="cls-1" d="M75.16,42.62a8,8,0,0,0,8-8"/></g><g id="LINE-9" data-name="LINE"><line class="cls-1" x1="83.12" y1="34.65" x2="83.12" y2="8.32"/></g><g id="ARC-7" data-name="ARC"><path class="cls-1" d="M82.37,8.32A7.22,7.22,0,0,0,75.16,1.1"/></g><g id="ARC-8" data-name="ARC"><path class="cls-1" d="M8.32,1.1A7.22,7.22,0,0,0,1.1,8.32"/></g><g id="LINE-10" data-name="LINE"><line class="cls-1" x1="1.1" y1="8.32" x2="1.1" y2="75.16"/></g><g id="ARC-9" data-name="ARC"><path class="cls-1" d="M1.1,75.16a7.22,7.22,0,0,0,7.22,7.22"/></g><g id="LINE-11" data-name="LINE"><line class="cls-1" x1="8.32" y1="82.37" x2="34.65" y2="82.37"/></g><g id="ARC-10" data-name="ARC"><path class="cls-1" d="M34.65,82.37a7.22,7.22,0,0,0,7.22-7.22"/></g><g id="LINE-12" data-name="LINE"><line class="cls-1" x1="41.87" y1="75.16" x2="41.87" y2="48.83"/></g><g id="ARC-11" data-name="ARC"><path class="cls-1" d="M48.83,41.87a7,7,0,0,0-7,7"/></g><g id="LINE-13" data-name="LINE"><line class="cls-1" x1="48.83" y1="41.87" x2="75.16" y2="41.87"/></g><g id="ARC-12" data-name="ARC"><path class="cls-1" d="M75.16,41.87a7.22,7.22,0,0,0,7.22-7.22"/></g><g id="LINE-14" data-name="LINE"><line class="cls-1" x1="82.37" y1="34.65" x2="82.37" y2="8.32"/></g><g id="ARC-13" data-name="ARC"><path class="cls-1" d="M83.12,8.32a8,8,0,0,0-8-8"/></g><g id="ARC-14" data-name="ARC"><path class="cls-1" d="M8.32.35a8,8,0,0,0-8,8"/></g><g id="LINE-15" data-name="LINE"><line class="cls-1" x1="0.35" y1="8.32" x2="0.35" y2="75.16"/></g><g id="ARC-15" data-name="ARC"><path class="cls-1" d="M.35,75.16a8,8,0,0,0,8,8"/></g><g id="LINE-16" data-name="LINE"><line class="cls-1" x1="8.32" y1="83.12" x2="34.65" y2="83.12"/></g><g id="ARC-16" data-name="ARC"><path class="cls-1" d="M34.65,83.12a8,8,0,0,0,8-8"/></g><g id="LINE-17" data-name="LINE"><line class="cls-1" x1="42.62" y1="75.16" x2="42.62" y2="48.83"/></g><g id="ARC-17" data-name="ARC"><path class="cls-1" d="M48.83,42.62a6.21,6.21,0,0,0-6.21,6.21"/></g><g id="LINE-18" data-name="LINE"><line class="cls-1" x1="48.83" y1="42.62" x2="75.16" y2="42.62"/></g><g id="ARC-18" data-name="ARC"><path class="cls-1" d="M75.16,42.62a8,8,0,0,0,8-8"/></g><g id="LINE-19" data-name="LINE"><line class="cls-1" x1="83.12" y1="34.65" x2="83.12" y2="8.32"/></g><g id="ARC-19" data-name="ARC"><path class="cls-1" d="M82.37,8.32A7.22,7.22,0,0,0,75.16,1.1"/></g><g id="LINE-20" data-name="LINE"><line class="cls-1" x1="82.37" y1="34.65" x2="82.37" y2="8.32"/></g><g id="ARC-20" data-name="ARC"><path class="cls-1" d="M75.16,41.87a7.22,7.22,0,0,0,7.22-7.22"/></g><g id="LINE-21" data-name="LINE"><line class="cls-1" x1="48.83" y1="41.87" x2="75.16" y2="41.87"/></g><g id="ARC-21" data-name="ARC"><path class="cls-1" d="M48.83,41.87a7,7,0,0,0-7,7"/></g><g id="LINE-22" data-name="LINE"><line class="cls-1" x1="41.87" y1="75.16" x2="41.87" y2="48.83"/></g><g id="ARC-22" data-name="ARC"><path class="cls-1" d="M34.65,82.37a7.22,7.22,0,0,0,7.22-7.22"/></g><g id="LINE-23" data-name="LINE"><line class="cls-1" x1="8.32" y1="82.37" x2="34.65" y2="82.37"/></g><g id="ARC-23" data-name="ARC"><path class="cls-1" d="M1.1,75.16a7.22,7.22,0,0,0,7.22,7.22"/></g><g id="LINE-24" data-name="LINE"><line class="cls-1" x1="1.1" y1="8.32" x2="1.1" y2="75.16"/></g><g id="ARC-24" data-name="ARC"><path class="cls-1" d="M8.32,1.1A7.22,7.22,0,0,0,1.1,8.32"/></g><g id="ARC-25" data-name="ARC"><path class="cls-1" d="M82.25,8.32a7.09,7.09,0,0,0-7.09-7.09"/></g><g id="LINE-25" data-name="LINE"><line class="cls-1" x1="82.25" y1="8.32" x2="82.25" y2="34.65"/></g><g id="ARC-26" data-name="ARC"><path class="cls-1" d="M75.16,41.74a7.09,7.09,0,0,0,7.09-7.09"/></g><g id="LINE-26" data-name="LINE"><line class="cls-1" x1="75.16" y1="41.74" x2="48.83" y2="41.74"/></g><g id="ARC-27" data-name="ARC"><path class="cls-1" d="M48.83,41.74a7.09,7.09,0,0,0-7.09,7.09"/></g><g id="LINE-27" data-name="LINE"><line class="cls-1" x1="41.74" y1="48.83" x2="41.74" y2="75.16"/></g><g id="ARC-28" data-name="ARC"><path class="cls-1" d="M34.65,82.25a7.09,7.09,0,0,0,7.09-7.09"/></g><g id="LINE-28" data-name="LINE"><line class="cls-1" x1="34.65" y1="82.25" x2="8.32" y2="82.25"/></g><g id="ARC-29" data-name="ARC"><path class="cls-1" d="M1.23,75.16a7.09,7.09,0,0,0,7.09,7.09"/></g><g id="LINE-29" data-name="LINE"><line class="cls-1" x1="1.23" y1="75.16" x2="1.23" y2="8.32"/></g><g id="ARC-30" data-name="ARC"><path class="cls-1" d="M8.32,1.23A7.09,7.09,0,0,0,1.23,8.32"/></g><g id="LINE-30" data-name="LINE"><line class="cls-1" x1="8.32" y1="1.23" x2="75.16" y2="1.23"/></g></g></g></svg>