<svg xmlns="http://www.w3.org/2000/svg" viewBox="0 0 84.09 80.79"><defs><style>.cls-1{fill:none;stroke:#000;stroke-linecap:round;stroke-linejoin:round;stroke-width:0.71px;}</style></defs><title>Risorsa 7</title><g id="Livello_2" data-name="Livello 2"><g id="Livello_1-2" data-name="Livello 1"><g id="ARC"><path class="cls-1" d="M3.64,26.38A8,8,0,0,0,.74,35.29"/></g><g id="LINE"><line class="cls-1" x1="0.74" y1="35.29" x2="13.63" y2="74.93"/></g><g id="ARC-2" data-name="ARC"><path class="cls-1" d="M13.63,74.93a8,8,0,0,0,7.58,5.5"/></g><g id="LINE-2" data-name="LINE"><line class="cls-1" x1="21.2" y1="80.44" x2="62.89" y2="80.44"/></g><g id="ARC-3" data-name="ARC"><path class="cls-1" d="M62.89,80.44a8,8,0,0,0,7.58-5.5"/></g><g id="LINE-3" data-name="LINE"><line class="cls-1" x1="70.47" y1="74.93" x2="83.35" y2="35.29"/></g><g id="ARC-4" data-name="ARC"><path class="cls-1" d="M83.35,35.29a8,8,0,0,0-2.89-8.91"/></g><g id="LINE-4" data-name="LINE"><line class="cls-1" x1="80.45" y1="26.38" x2="46.73" y2="1.88"/></g><g id="ARC-5" data-name="ARC"><path class="cls-1" d="M46.73,1.88a8,8,0,0,0-9.36,0"/></g><g id="LINE-5" data-name="LINE"><line class="cls-1" x1="37.36" y1="1.88" x2="3.64" y2="26.38"/></g><g id="ARC-6" data-name="ARC"><path class="cls-1" d="M4.08,27a7.22,7.22,0,0,0-2.62,8.07"/></g><g id="LINE-6" data-name="LINE"><line class="cls-1" x1="1.46" y1="35.05" x2="14.34" y2="74.7"/></g><g id="ARC-7" data-name="ARC"><path class="cls-1" d="M14.34,74.7a7.22,7.22,0,0,0,6.86,5"/></g><g id="LINE-7" data-name="LINE"><line class="cls-1" x1="21.2" y1="79.69" x2="62.89" y2="79.69"/></g><g id="ARC-8" data-name="ARC"><path class="cls-1" d="M62.89,79.69a7.22,7.22,0,0,0,6.86-5"/></g><g id="LINE-8" data-name="LINE"><line class="cls-1" x1="69.75" y1="74.7" x2="82.63" y2="35.05"/></g><g id="ARC-9" data-name="ARC"><path class="cls-1" d="M82.63,35.05A7.22,7.22,0,0,0,80,27"/></g><g id="LINE-9" data-name="LINE"><line class="cls-1" x1="80.01" y1="26.99" x2="46.29" y2="2.48"/></g><g id="ARC-10" data-name="ARC"><path class="cls-1" d="M46.29,2.48a7.22,7.22,0,0,0-8.48,0"/></g><g id="LINE-10" data-name="LINE"><line class="cls-1" x1="37.81" y1="2.48" x2="4.08" y2="26.99"/></g><g id="ARC-11" data-name="ARC"><path class="cls-1" d="M3.64,26.38A8,8,0,0,0,.74,35.29"/></g><g id="LINE-11" data-name="LINE"><line class="cls-1" x1="0.74" y1="35.29" x2="13.63" y2="74.93"/></g><g id="ARC-12" data-name="ARC"><path class="cls-1" d="M13.63,74.93a8,8,0,0,0,7.58,5.5"/></g><g id="LINE-12" data-name="LINE"><line class="cls-1" x1="21.2" y1="80.44" x2="62.89" y2="80.44"/></g><g id="ARC-13" data-name="ARC"><path class="cls-1" d="M62.89,80.44a8,8,0,0,0,7.58-5.5"/></g><g id="LINE-13" data-name="LINE"><line class="cls-1" x1="70.47" y1="74.93" x2="83.35" y2="35.29"/></g><g id="ARC-14" data-name="ARC"><path class="cls-1" d="M83.35,35.29a8,8,0,0,0-2.89-8.91"/></g><g id="LINE-14" data-name="LINE"><line class="cls-1" x1="80.45" y1="26.38" x2="46.73" y2="1.88"/></g><g id="ARC-15" data-name="ARC"><path class="cls-1" d="M46.73,1.88a8,8,0,0,0-9.36,0"/></g><g id="LINE-15" data-name="LINE"><line class="cls-1" x1="37.36" y1="1.88" x2="3.64" y2="26.38"/></g><g id="ARC-16" data-name="ARC"><path class="cls-1" d="M4.08,27a7.22,7.22,0,0,0-2.62,8.07"/></g><g id="LINE-16" data-name="LINE"><line class="cls-1" x1="37.81" y1="2.48" x2="4.08" y2="26.99"/></g><g id="ARC-17" data-name="ARC"><path class="cls-1" d="M46.29,2.48a7.22,7.22,0,0,0-8.48,0"/></g><g id="LINE-17" data-name="LINE"><line class="cls-1" x1="80.01" y1="26.99" x2="46.29" y2="2.48"/></g><g id="ARC-18" data-name="ARC"><path class="cls-1" d="M82.63,35.05A7.22,7.22,0,0,0,80,27"/></g><g id="LINE-18" data-name="LINE"><line class="cls-1" x1="69.75" y1="74.7" x2="82.63" y2="35.05"/></g><g id="ARC-19" data-name="ARC"><path class="cls-1" d="M62.89,79.69a7.22,7.22,0,0,0,6.86-5"/></g><g id="LINE-19" data-name="LINE"><line class="cls-1" x1="21.2" y1="79.69" x2="62.89" y2="79.69"/></g><g id="ARC-20" data-name="ARC"><path class="cls-1" d="M14.34,74.7a7.22,7.22,0,0,0,6.86,5"/></g><g id="LINE-20" data-name="LINE"><line class="cls-1" x1="1.46" y1="35.05" x2="14.34" y2="74.7"/></g><g id="ARC-21" data-name="ARC"><path class="cls-1" d="M4.15,27.09A7.09,7.09,0,0,0,1.58,35"/></g><g id="LINE-21" data-name="LINE"><line class="cls-1" x1="4.15" y1="27.09" x2="37.88" y2="2.59"/></g><g id="ARC-22" data-name="ARC"><path class="cls-1" d="M46.21,2.59a7.09,7.09,0,0,0-8.33,0"/></g><g id="LINE-22" data-name="LINE"><line class="cls-1" x1="46.21" y1="2.59" x2="79.94" y2="27.09"/></g><g id="ARC-23" data-name="ARC"><path class="cls-1" d="M82.51,35a7.09,7.09,0,0,0-2.58-7.93"/></g><g id="LINE-23" data-name="LINE"><line class="cls-1" x1="82.51" y1="35.01" x2="69.63" y2="74.66"/></g><g id="ARC-24" data-name="ARC"><path class="cls-1" d="M62.89,79.56a7.09,7.09,0,0,0,6.74-4.9"/></g><g id="LINE-24" data-name="LINE"><line class="cls-1" x1="62.89" y1="79.56" x2="21.2" y2="79.56"/></g><g id="ARC-25" data-name="ARC"><path class="cls-1" d="M14.46,74.66a7.09,7.09,0,0,0,6.74,4.9"/></g><g id="LINE-25" data-name="LINE"><line class="cls-1" x1="14.46" y1="74.66" x2="1.58" y2="35.01"/></g></g></g></svg>