<svg xmlns="http://www.w3.org/2000/svg" viewBox="0 0 76.43 81.8"><defs><style>.cls-1{fill:none;stroke:#000;stroke-linecap:round;stroke-linejoin:round;stroke-width:0.71px;}</style></defs><title>Risorsa 8</title><g id="Livello_2" data-name="Livello 2"><g id="Livello_1-2" data-name="Livello 1"><g id="ARC"><path class="cls-1" d="M3.64,26.77A8,8,0,0,0,.74,35.67"/></g><g id="ARC-2" data-name="ARC"><path class="cls-1" d="M4.08,27.37a7.22,7.22,0,0,0-2.62,8.07"/></g><g id="ARC-3" data-name="ARC"><path class="cls-1" d="M3.64,26.77A8,8,0,0,0,.74,35.67"/></g><g id="ARC-4" data-name="ARC"><path class="cls-1" d="M4.08,27.37a7.22,7.22,0,0,0-2.62,8.07"/></g><g id="ARC-5" data-name="ARC"><path class="cls-1" d="M4.15,27.48A7.09,7.09,0,0,0,1.58,35.4"/></g><g id="LINE"><line class="cls-1" x1="0.74" y1="35.67" x2="13.83" y2="75.94"/></g><g id="ARC-6" data-name="ARC"><path class="cls-1" d="M13.83,75.94a8,8,0,0,0,7.58,5.5"/></g><g id="LINE-2" data-name="LINE"><line class="cls-1" x1="21.41" y1="81.45" x2="63.75" y2="81.45"/></g><g id="ARC-7" data-name="ARC"><path class="cls-1" d="M63.75,81.45a8,8,0,0,0,7.58-5.5"/></g><g id="LINE-3" data-name="LINE"><line class="cls-1" x1="71.33" y1="75.94" x2="75.68" y2="62.55"/></g><g id="ARC-8" data-name="ARC"><path class="cls-1" d="M75.68,62.55a8,8,0,0,0-5.11-10"/></g><g id="LINE-4" data-name="LINE"><line class="cls-1" x1="70.57" y1="52.51" x2="52.13" y2="46.52"/></g><g id="ARC-9" data-name="ARC"><path class="cls-1" d="M49,37a6.21,6.21,0,0,0,3.11,9.56"/></g><g id="LINE-5" data-name="LINE"><line class="cls-1" x1="49.02" y1="36.96" x2="60.42" y2="21.28"/></g><g id="ARC-10" data-name="ARC"><path class="cls-1" d="M60.42,21.28a8,8,0,0,0-1.76-11.13"/></g><g id="LINE-6" data-name="LINE"><line class="cls-1" x1="58.66" y1="10.15" x2="47.26" y2="1.88"/></g><g id="ARC-11" data-name="ARC"><path class="cls-1" d="M47.26,1.88a8,8,0,0,0-9.36,0"/></g><g id="LINE-7" data-name="LINE"><line class="cls-1" x1="37.9" y1="1.88" x2="3.64" y2="26.77"/></g><g id="LINE-8" data-name="LINE"><line class="cls-1" x1="1.46" y1="35.44" x2="14.54" y2="75.71"/></g><g id="ARC-12" data-name="ARC"><path class="cls-1" d="M14.54,75.71a7.22,7.22,0,0,0,6.86,5"/></g><g id="LINE-9" data-name="LINE"><line class="cls-1" x1="21.41" y1="80.7" x2="63.75" y2="80.7"/></g><g id="ARC-13" data-name="ARC"><path class="cls-1" d="M63.75,80.7a7.22,7.22,0,0,0,6.86-5"/></g><g id="LINE-10" data-name="LINE"><line class="cls-1" x1="70.61" y1="75.71" x2="74.97" y2="62.32"/></g><g id="ARC-14" data-name="ARC"><path class="cls-1" d="M75,62.32a7.22,7.22,0,0,0-4.63-9.09"/></g><g id="LINE-11" data-name="LINE"><line class="cls-1" x1="70.33" y1="53.23" x2="51.9" y2="47.24"/></g><g id="ARC-15" data-name="ARC"><path class="cls-1" d="M48.42,36.52A7,7,0,0,0,51.9,47.24"/></g><g id="LINE-12" data-name="LINE"><line class="cls-1" x1="48.42" y1="36.52" x2="59.81" y2="20.84"/></g><g id="ARC-16" data-name="ARC"><path class="cls-1" d="M59.81,20.84a7.22,7.22,0,0,0-1.6-10.08"/></g><g id="LINE-13" data-name="LINE"><line class="cls-1" x1="58.21" y1="10.76" x2="46.82" y2="2.48"/></g><g id="ARC-17" data-name="ARC"><path class="cls-1" d="M46.82,2.48a7.22,7.22,0,0,0-8.48,0"/></g><g id="LINE-14" data-name="LINE"><line class="cls-1" x1="38.34" y1="2.48" x2="4.08" y2="27.37"/></g><g id="LINE-15" data-name="LINE"><line class="cls-1" x1="0.74" y1="35.67" x2="13.83" y2="75.94"/></g><g id="ARC-18" data-name="ARC"><path class="cls-1" d="M13.83,75.94a8,8,0,0,0,7.58,5.5"/></g><g id="LINE-16" data-name="LINE"><line class="cls-1" x1="21.41" y1="81.45" x2="63.75" y2="81.45"/></g><g id="ARC-19" data-name="ARC"><path class="cls-1" d="M63.75,81.45a8,8,0,0,0,7.58-5.5"/></g><g id="LINE-17" data-name="LINE"><line class="cls-1" x1="71.33" y1="75.94" x2="75.68" y2="62.55"/></g><g id="ARC-20" data-name="ARC"><path class="cls-1" d="M75.68,62.55a8,8,0,0,0-5.11-10"/></g><g id="LINE-18" data-name="LINE"><line class="cls-1" x1="70.57" y1="52.51" x2="52.13" y2="46.52"/></g><g id="ARC-21" data-name="ARC"><path class="cls-1" d="M49,37a6.21,6.21,0,0,0,3.11,9.56"/></g><g id="LINE-19" data-name="LINE"><line class="cls-1" x1="49.02" y1="36.96" x2="60.42" y2="21.28"/></g><g id="ARC-22" data-name="ARC"><path class="cls-1" d="M60.42,21.28a8,8,0,0,0-1.76-11.13"/></g><g id="LINE-20" data-name="LINE"><line class="cls-1" x1="58.66" y1="10.15" x2="47.26" y2="1.88"/></g><g id="ARC-23" data-name="ARC"><path class="cls-1" d="M47.26,1.88a8,8,0,0,0-9.36,0"/></g><g id="LINE-21" data-name="LINE"><line class="cls-1" x1="37.9" y1="1.88" x2="3.64" y2="26.77"/></g><g id="LINE-22" data-name="LINE"><line class="cls-1" x1="38.34" y1="2.48" x2="4.08" y2="27.37"/></g><g id="ARC-24" data-name="ARC"><path class="cls-1" d="M46.82,2.48a7.22,7.22,0,0,0-8.48,0"/></g><g id="LINE-23" data-name="LINE"><line class="cls-1" x1="58.21" y1="10.76" x2="46.82" y2="2.48"/></g><g id="ARC-25" data-name="ARC"><path class="cls-1" d="M59.81,20.84a7.22,7.22,0,0,0-1.6-10.08"/></g><g id="LINE-24" data-name="LINE"><line class="cls-1" x1="48.42" y1="36.52" x2="59.81" y2="20.84"/></g><g id="ARC-26" data-name="ARC"><path class="cls-1" d="M48.42,36.52A7,7,0,0,0,51.9,47.24"/></g><g id="LINE-25" data-name="LINE"><line class="cls-1" x1="70.33" y1="53.23" x2="51.9" y2="47.24"/></g><g id="ARC-27" data-name="ARC"><path class="cls-1" d="M75,62.32a7.22,7.22,0,0,0-4.63-9.09"/></g><g id="LINE-26" data-name="LINE"><line class="cls-1" x1="70.61" y1="75.71" x2="74.97" y2="62.32"/></g><g id="ARC-28" data-name="ARC"><path class="cls-1" d="M63.75,80.7a7.22,7.22,0,0,0,6.86-5"/></g><g id="LINE-27" data-name="LINE"><line class="cls-1" x1="21.41" y1="80.7" x2="63.75" y2="80.7"/></g><g id="ARC-29" data-name="ARC"><path class="cls-1" d="M14.54,75.71a7.22,7.22,0,0,0,6.86,5"/></g><g id="LINE-28" data-name="LINE"><line class="cls-1" x1="1.46" y1="35.44" x2="14.54" y2="75.71"/></g><g id="LINE-29" data-name="LINE"><line class="cls-1" x1="4.15" y1="27.48" x2="38.41" y2="2.59"/></g><g id="ARC-30" data-name="ARC"><path class="cls-1" d="M46.75,2.59a7.09,7.09,0,0,0-8.33,0"/></g><g id="LINE-30" data-name="LINE"><line class="cls-1" x1="46.75" y1="2.59" x2="58.14" y2="10.86"/></g><g id="ARC-31" data-name="ARC"><path class="cls-1" d="M59.71,20.77a7.09,7.09,0,0,0-1.57-9.9"/></g><g id="LINE-31" data-name="LINE"><line class="cls-1" x1="59.71" y1="20.77" x2="48.31" y2="36.45"/></g><g id="ARC-32" data-name="ARC"><path class="cls-1" d="M48.31,36.45a7.09,7.09,0,0,0,3.54,10.91"/></g><g id="LINE-32" data-name="LINE"><line class="cls-1" x1="51.86" y1="47.36" x2="70.29" y2="53.35"/></g><g id="ARC-33" data-name="ARC"><path class="cls-1" d="M74.85,62.28a7.09,7.09,0,0,0-4.55-8.93"/></g><g id="LINE-33" data-name="LINE"><line class="cls-1" x1="74.85" y1="62.28" x2="70.49" y2="75.67"/></g><g id="ARC-34" data-name="ARC"><path class="cls-1" d="M63.75,80.57a7.09,7.09,0,0,0,6.74-4.9"/></g><g id="LINE-34" data-name="LINE"><line class="cls-1" x1="63.75" y1="80.57" x2="21.41" y2="80.57"/></g><g id="ARC-35" data-name="ARC"><path class="cls-1" d="M14.66,75.67a7.09,7.09,0,0,0,6.74,4.9"/></g><g id="LINE-35" data-name="LINE"><line class="cls-1" x1="14.66" y1="75.67" x2="1.58" y2="35.4"/></g></g></g></svg>