<svg xmlns="http://www.w3.org/2000/svg" viewBox="0 0 71.75 80.3"><defs><style>.cls-1{fill:none;stroke:#000;stroke-linecap:round;stroke-linejoin:round;stroke-width:0.71px;}</style></defs><title>Risorsa 9</title><g id="Livello_2" data-name="Livello 2"><g id="Livello_1-2" data-name="Livello 1"><g id="LINE"><line class="cls-1" x1="71.39" y1="56.11" x2="71.39" y2="24.19"/></g><g id="LINE-2" data-name="LINE"><line class="cls-1" x1="0.35" y1="24.19" x2="0.35" y2="56.11"/></g><g id="LINE-3" data-name="LINE"><line class="cls-1" x1="70.64" y1="56.11" x2="70.64" y2="24.19"/></g><g id="LINE-4" data-name="LINE"><line class="cls-1" x1="1.1" y1="24.19" x2="1.1" y2="56.11"/></g><g id="LINE-5" data-name="LINE"><line class="cls-1" x1="71.39" y1="56.11" x2="71.39" y2="24.19"/></g><g id="LINE-6" data-name="LINE"><line class="cls-1" x1="0.35" y1="24.19" x2="0.35" y2="56.11"/></g><g id="LINE-7" data-name="LINE"><line class="cls-1" x1="1.1" y1="24.19" x2="1.1" y2="56.11"/></g><g id="LINE-8" data-name="LINE"><line class="cls-1" x1="70.64" y1="56.11" x2="70.64" y2="24.19"/></g><g id="LINE-9" data-name="LINE"><line class="cls-1" x1="1.23" y1="56.11" x2="1.23" y2="24.19"/></g><g id="LINE-10" data-name="LINE"><line class="cls-1" x1="70.51" y1="24.19" x2="70.51" y2="56.11"/></g><g id="ARC"><path class="cls-1" d="M.35,56.11a7.88,7.88,0,0,0,3.94,6.82"/></g><g id="LINE-11" data-name="LINE"><line class="cls-1" x1="4.29" y1="62.93" x2="31.93" y2="78.89"/></g><g id="ARC-2" data-name="ARC"><path class="cls-1" d="M31.93,78.89a7.88,7.88,0,0,0,7.88,0"/></g><g id="LINE-12" data-name="LINE"><line class="cls-1" x1="39.81" y1="78.89" x2="67.45" y2="62.93"/></g><g id="ARC-3" data-name="ARC"><path class="cls-1" d="M67.45,62.93a7.88,7.88,0,0,0,3.94-6.82"/></g><g id="ARC-4" data-name="ARC"><path class="cls-1" d="M71.39,24.19a7.88,7.88,0,0,0-3.94-6.82"/></g><g id="LINE-13" data-name="LINE"><line class="cls-1" x1="67.45" y1="17.37" x2="39.81" y2="1.41"/></g><g id="ARC-5" data-name="ARC"><path class="cls-1" d="M39.81,1.41a7.88,7.88,0,0,0-7.88,0"/></g><g id="LINE-14" data-name="LINE"><line class="cls-1" x1="31.93" y1="1.41" x2="4.29" y2="17.37"/></g><g id="ARC-6" data-name="ARC"><path class="cls-1" d="M4.29,17.37A7.88,7.88,0,0,0,.35,24.19"/></g><g id="ARC-7" data-name="ARC"><path class="cls-1" d="M1.1,56.11a7.13,7.13,0,0,0,3.56,6.17"/></g><g id="LINE-15" data-name="LINE"><line class="cls-1" x1="4.67" y1="62.28" x2="32.31" y2="78.24"/></g><g id="ARC-8" data-name="ARC"><path class="cls-1" d="M32.31,78.24a7.13,7.13,0,0,0,7.13,0"/></g><g id="LINE-16" data-name="LINE"><line class="cls-1" x1="39.44" y1="78.24" x2="67.08" y2="62.28"/></g><g id="ARC-9" data-name="ARC"><path class="cls-1" d="M67.08,62.28a7.13,7.13,0,0,0,3.56-6.17"/></g><g id="ARC-10" data-name="ARC"><path class="cls-1" d="M70.64,24.19A7.13,7.13,0,0,0,67.08,18"/></g><g id="LINE-17" data-name="LINE"><line class="cls-1" x1="67.08" y1="18.02" x2="39.44" y2="2.06"/></g><g id="ARC-11" data-name="ARC"><path class="cls-1" d="M39.44,2.06a7.13,7.13,0,0,0-7.13,0"/></g><g id="LINE-18" data-name="LINE"><line class="cls-1" x1="32.31" y1="2.06" x2="4.67" y2="18.02"/></g><g id="ARC-12" data-name="ARC"><path class="cls-1" d="M4.67,18A7.13,7.13,0,0,0,1.1,24.19"/></g><g id="ARC-13" data-name="ARC"><path class="cls-1" d="M.35,56.11a7.88,7.88,0,0,0,3.94,6.82"/></g><g id="LINE-19" data-name="LINE"><line class="cls-1" x1="4.29" y1="62.93" x2="31.93" y2="78.89"/></g><g id="ARC-14" data-name="ARC"><path class="cls-1" d="M31.93,78.89a7.88,7.88,0,0,0,7.88,0"/></g><g id="LINE-20" data-name="LINE"><line class="cls-1" x1="39.81" y1="78.89" x2="67.45" y2="62.93"/></g><g id="ARC-15" data-name="ARC"><path class="cls-1" d="M67.45,62.93a7.88,7.88,0,0,0,3.94-6.82"/></g><g id="ARC-16" data-name="ARC"><path class="cls-1" d="M71.39,24.19a7.88,7.88,0,0,0-3.94-6.82"/></g><g id="LINE-21" data-name="LINE"><line class="cls-1" x1="67.45" y1="17.37" x2="39.81" y2="1.41"/></g><g id="ARC-17" data-name="ARC"><path class="cls-1" d="M39.81,1.41a7.88,7.88,0,0,0-7.88,0"/></g><g id="LINE-22" data-name="LINE"><line class="cls-1" x1="31.93" y1="1.41" x2="4.29" y2="17.37"/></g><g id="ARC-18" data-name="ARC"><path class="cls-1" d="M4.29,17.37A7.88,7.88,0,0,0,.35,24.19"/></g><g id="ARC-19" data-name="ARC"><path class="cls-1" d="M1.1,56.11a7.13,7.13,0,0,0,3.56,6.17"/></g><g id="ARC-20" data-name="ARC"><path class="cls-1" d="M4.67,18A7.13,7.13,0,0,0,1.1,24.19"/></g><g id="LINE-23" data-name="LINE"><line class="cls-1" x1="32.31" y1="2.06" x2="4.67" y2="18.02"/></g><g id="ARC-21" data-name="ARC"><path class="cls-1" d="M39.44,2.06a7.13,7.13,0,0,0-7.13,0"/></g><g id="LINE-24" data-name="LINE"><line class="cls-1" x1="67.08" y1="18.02" x2="39.44" y2="2.06"/></g><g id="ARC-22" data-name="ARC"><path class="cls-1" d="M70.64,24.19A7.13,7.13,0,0,0,67.08,18"/></g><g id="ARC-23" data-name="ARC"><path class="cls-1" d="M67.08,62.28a7.13,7.13,0,0,0,3.56-6.17"/></g><g id="LINE-25" data-name="LINE"><line class="cls-1" x1="39.44" y1="78.24" x2="67.08" y2="62.28"/></g><g id="ARC-24" data-name="ARC"><path class="cls-1" d="M32.31,78.24a7.13,7.13,0,0,0,7.13,0"/></g><g id="LINE-26" data-name="LINE"><line class="cls-1" x1="4.67" y1="62.28" x2="32.31" y2="78.24"/></g><g id="ARC-25" data-name="ARC"><path class="cls-1" d="M1.23,56.11a7,7,0,0,0,3.5,6.06"/></g><g id="ARC-26" data-name="ARC"><path class="cls-1" d="M4.73,18.13a7,7,0,0,0-3.5,6.06"/></g><g id="LINE-27" data-name="LINE"><line class="cls-1" x1="4.73" y1="18.13" x2="32.37" y2="2.17"/></g><g id="ARC-27" data-name="ARC"><path class="cls-1" d="M39.37,2.17a7,7,0,0,0-7,0"/></g><g id="LINE-28" data-name="LINE"><line class="cls-1" x1="39.37" y1="2.17" x2="67.01" y2="18.13"/></g><g id="ARC-28" data-name="ARC"><path class="cls-1" d="M70.51,24.19A7,7,0,0,0,67,18.13"/></g><g id="ARC-29" data-name="ARC"><path class="cls-1" d="M67,62.17a7,7,0,0,0,3.5-6.06"/></g><g id="LINE-29" data-name="LINE"><line class="cls-1" x1="67.01" y1="62.17" x2="39.37" y2="78.13"/></g><g id="ARC-30" data-name="ARC"><path class="cls-1" d="M32.37,78.13a7,7,0,0,0,7,0"/></g><g id="LINE-30" data-name="LINE"><line class="cls-1" x1="32.37" y1="78.13" x2="4.73" y2="62.17"/></g></g></g></svg>