<svg id="Livello_1" data-name="Livello 1" xmlns="http://www.w3.org/2000/svg" viewBox="0 0 71.75 80.3"><defs><style>.cls-1{fill:none;stroke:#000;stroke-linecap:round;stroke-linejoin:round;stroke-width:0.71px;}</style></defs><title>8</title><g id="Livello_2" data-name="Livello 2"><g id="Livello_1-2" data-name="Livello 1-2"><g id="LINE"><line class="cls-1" x1="48.05" y1="0.27" x2="22.79" y2="0.27"/></g><g id="LINE-2"><line class="cls-1" x1="48.05" y1="1" x2="22.79" y2="1"/></g><g id="LINE-3"><line class="cls-1" x1="48.05" y1="0.27" x2="22.79" y2="0.27"/></g><g id="LINE-4"><line class="cls-1" x1="48.05" y1="1" x2="22.79" y2="1"/></g><g id="LINE-5"><line class="cls-1" x1="22.79" y1="1.13" x2="48.05" y2="1.13"/></g><g id="ARC"><path class="cls-1" d="M22.79.27A7.81,7.81,0,0,0,15,8.05h0"/></g><g id="LINE-6"><line class="cls-1" x1="14.99" y1="8.03" x2="14.99" y2="72.08"/></g><g id="ARC-2"><path class="cls-1" d="M15,72.08a7.81,7.81,0,0,0,7.83,7.79h0"/></g><g id="LINE-7"><line class="cls-1" x1="22.79" y1="79.84" x2="48.05" y2="79.84"/></g><g id="ARC-3"><path class="cls-1" d="M48,79.84a7.81,7.81,0,0,0,7.83-7.79"/></g><g id="LINE-8"><line class="cls-1" x1="55.84" y1="72.08" x2="55.84" y2="8.03"/></g><g id="ARC-4"><path class="cls-1" d="M55.84,8A7.81,7.81,0,0,0,48,.24"/></g><g id="ARC-5"><path class="cls-1" d="M22.79,1a7,7,0,0,0-7.06,7h0"/></g><g id="LINE-9"><line class="cls-1" x1="15.73" y1="8.03" x2="15.73" y2="72.08"/></g><g id="ARC-6"><path class="cls-1" d="M15.73,72.08a7,7,0,0,0,7.06,7h0"/></g><g id="LINE-10"><line class="cls-1" x1="22.79" y1="79.11" x2="48.05" y2="79.11"/></g><g id="ARC-7"><path class="cls-1" d="M48,79.11a7,7,0,0,0,7.06-7h0"/></g><g id="LINE-11"><line class="cls-1" x1="55.11" y1="72.08" x2="55.11" y2="8.03"/></g><g id="ARC-8"><path class="cls-1" d="M55.11,8A7,7,0,0,0,48,1h0"/></g><g id="ARC-9"><path class="cls-1" d="M22.79.27A7.81,7.81,0,0,0,15,8.05h0"/></g><g id="LINE-12"><line class="cls-1" x1="14.99" y1="8.03" x2="14.99" y2="72.08"/></g><g id="ARC-10"><path class="cls-1" d="M15,72.08a7.81,7.81,0,0,0,7.83,7.79h0"/></g><g id="LINE-13"><line class="cls-1" x1="22.79" y1="79.84" x2="48.05" y2="79.84"/></g><g id="ARC-11"><path class="cls-1" d="M48,79.84a7.81,7.81,0,0,0,7.83-7.79"/></g><g id="LINE-14"><line class="cls-1" x1="55.84" y1="72.08" x2="55.84" y2="8.03"/></g><g id="ARC-12"><path class="cls-1" d="M55.84,8A7.81,7.81,0,0,0,48,.24"/></g><g id="ARC-13"><path class="cls-1" d="M22.79,1a7,7,0,0,0-7.06,7h0"/></g><g id="ARC-14"><path class="cls-1" d="M55.11,8A7,7,0,0,0,48,1h0"/></g><g id="LINE-15"><line class="cls-1" x1="55.11" y1="72.08" x2="55.11" y2="8.03"/></g><g id="ARC-15"><path class="cls-1" d="M48,79.11a7,7,0,0,0,7.06-7h0"/></g><g id="LINE-16"><line class="cls-1" x1="22.79" y1="79.11" x2="48.05" y2="79.11"/></g><g id="ARC-16"><path class="cls-1" d="M15.73,72.08a7,7,0,0,0,7.06,7h0"/></g><g id="LINE-17"><line class="cls-1" x1="15.73" y1="8.03" x2="15.73" y2="72.08"/></g><g id="ARC-17"><path class="cls-1" d="M22.79,1.13A6.92,6.92,0,0,0,15.86,8"/></g><g id="ARC-18"><path class="cls-1" d="M55,8A6.92,6.92,0,0,0,48,1.13h0"/></g><g id="LINE-18"><line class="cls-1" x1="54.98" y1="8.03" x2="54.98" y2="72.08"/></g><g id="ARC-19"><path class="cls-1" d="M48,79A6.92,6.92,0,0,0,55,72.08h0"/></g><g id="LINE-19"><line class="cls-1" x1="48.05" y1="78.98" x2="22.79" y2="78.98"/></g><g id="ARC-20"><path class="cls-1" d="M15.86,72.08A6.92,6.92,0,0,0,22.79,79"/></g><g id="LINE-20"><line class="cls-1" x1="15.86" y1="72.08" x2="15.86" y2="8.03"/></g></g></g></svg>