<?xml version="1.0" encoding="utf-8"?>
<!-- Generator: Adobe Illustrator 15.1.0, SVG Export Plug-In  -->
<!DOCTYPE svg PUBLIC "-//W3C//DTD SVG 1.1//EN" "http://www.w3.org/Graphics/SVG/1.1/DTD/svg11.dtd" [
	<!ENTITY ns_flows "http://ns.adobe.com/Flows/1.0/">
]>
<svg version="1.1"
	 xmlns="http://www.w3.org/2000/svg" xmlns:xlink="http://www.w3.org/1999/xlink" xmlns:a="http://ns.adobe.com/AdobeSVGViewerExtensions/3.0/"
	 x="0px" y="0px" width="624px" height="495px" viewBox="0 0 624 495" overflow="visible" enable-background="new 0 0 624 495"
	 xml:space="preserve">
<defs>
</defs>
<path fill="#E6E7E8" d="M244,0H14C6.268,0,0,6.268,0,14v467c0,7.732,6.268,14,14,14h230c7.732,0,14-6.268,14-14V14
	C258,6.268,251.732,0,244,0z M245,430H13V36h232V430z"/>
<path fill="#58595B" d="M624,251c0-7.732-6.268-14-14-14H143c-7.732,0-14,6.268-14,14v230c0,7.732,6.268,14,14,14h467
	c7.732,0,14-6.268,14-14V251z M194,482V250h394v232H194z"/>
<path fill="#58595B" d="M375.573,128.107l-29.113,14.591l68.886,25.868l18.937-69.879l-25.83,12.944
	c-29.378-58.624-101.101-39.397-101.101-39.397C344.994,74.128,359.627,96.289,375.573,128.107z"/>
</svg>
