<svg xmlns="http://www.w3.org/2000/svg" xmlns:xlink="http://www.w3.org/1999/xlink" viewBox="0 0 89.08 113.39"><defs><style>.cls-1{fill:none;}.cls-2{isolation:isolate;}.cls-3{fill:#0001fd;}.cls-4{fill:#004882;}.cls-5{clip-path:url(#clip-path);}.cls-6{fill:#004785;}.cls-7{clip-path:url(#clip-path-2);}.cls-8{fill:#004981;}.cls-9{clip-path:url(#clip-path-3);}.cls-10{clip-path:url(#clip-path-4);}</style><clipPath id="clip-path"><path class="cls-1" d="M89.08,104.89a8.52,8.52,0,0,1-8.47,8.51H76.24a8.52,8.52,0,0,0,8.47-8.51Z"/></clipPath><clipPath id="clip-path-2"><path class="cls-1" d="M80.6,0a8.51,8.51,0,0,1,8.47,8.51H84.72A8.51,8.51,0,0,0,76.24,0Z"/></clipPath><clipPath id="clip-path-3"><path class="cls-1" d="M12.83,113.39H8.47A8.52,8.52,0,0,1,0,104.89H4.36A8.52,8.52,0,0,0,12.83,113.39Z"/></clipPath><clipPath id="clip-path-4"><path class="cls-1" d="M4.36,8.51H0A8.51,8.51,0,0,1,8.47,0h4.36A8.51,8.51,0,0,0,4.36,8.51Z"/></clipPath></defs><title>Risorsa 5_1</title><g id="Livello_2" data-name="Livello 2"><g id="Livello_1-2" data-name="Livello 1"><g class="cls-2"><path class="cls-3" d="M76.24,0a8.51,8.51,0,0,1,8.47,8.51v96.38a8.52,8.52,0,0,1-8.47,8.51H8.47A8.52,8.52,0,0,1,0,104.89V8.51A8.51,8.51,0,0,1,8.47,0Z"/><rect class="cls-4" x="84.72" y="8.51" width="4.36" height="96.38"/><g class="cls-2"><g class="cls-5"><g class="cls-2"><path class="cls-6" d="M89.08,104.89H84.72a8.52,8.52,0,0,1-8.47,8.51H80.6a8.52,8.52,0,0,0,8.47-8.51"/></g></g></g><g class="cls-2"><g class="cls-7"><g class="cls-2"><path class="cls-6" d="M80.6,0H76.24a8.51,8.51,0,0,1,8.47,8.51h4.36A8.51,8.51,0,0,0,80.6,0"/></g></g></g><polygon class="cls-8" points="80.6 113.39 12.83 113.39 8.47 113.39 76.25 113.39 80.6 113.39"/><polygon class="cls-8" points="12.83 0 8.47 0 76.25 0 80.6 0 12.83 0"/><g class="cls-2"><g class="cls-9"><g class="cls-2"><path class="cls-6" d="M12.83,113.39H8.47A8.52,8.52,0,0,1,0,104.89H4.36a8.52,8.52,0,0,0,8.47,8.51"/></g></g></g><rect class="cls-4" y="8.51" width="4.36" height="96.38"/><path class="cls-3" d="M80.6,0a8.51,8.51,0,0,1,8.47,8.51v96.38a8.52,8.52,0,0,1-8.47,8.51H12.83a8.52,8.52,0,0,1-8.47-8.51V8.51A8.51,8.51,0,0,1,12.83,0Z"/><g class="cls-2"><g class="cls-10"><g class="cls-2"><path class="cls-6" d="M4.36,8.51H0A8.51,8.51,0,0,1,8.47,0h4.36A8.51,8.51,0,0,0,4.36,8.51"/></g></g></g></g></g></g></svg>