<svg xmlns="http://www.w3.org/2000/svg" xmlns:xlink="http://www.w3.org/1999/xlink" viewBox="0 0 128.31 109.07"><defs><style>.cls-1{fill:none;}.cls-2{isolation:isolate;}.cls-3{fill:#13d10f;}.cls-4{clip-path:url(#clip-path);}.cls-5{fill:#58881e;}.cls-6{fill:#57891e;}.cls-7{clip-path:url(#clip-path-2);}.cls-8{fill:#528f1c;}.cls-9{fill:#558b1d;}.cls-10{clip-path:url(#clip-path-3);}.cls-11{fill:#5b841e;}.cls-12{clip-path:url(#clip-path-4);}</style><clipPath id="clip-path" transform="translate(0)"><path class="cls-1" d="M127.31,101.7c2.33,4.05.42,7.37-4.24,7.37h-4.36c4.66,0,6.57-3.32,4.24-7.37Z"/></clipPath><clipPath id="clip-path-2" transform="translate(0)"><path class="cls-1" d="M66.33,0c1.54,0,3.07,1,4.24,3H66.21C65,1,63.51,0,62,0Z"/></clipPath><clipPath id="clip-path-3" transform="translate(0)"><path class="cls-1" d="M62.1,3H57.74C58.9,1,60.44,0,62,0h4.36C64.8,0,63.26,1,62.1,3Z"/></clipPath><clipPath id="clip-path-4" transform="translate(0)"><path class="cls-1" d="M9.59,109.07H5.24c-4.66,0-6.57-3.32-4.24-7.37H5.35C3,105.75,4.93,109.07,9.59,109.07Z"/></clipPath></defs><title>Risorsa 3_1</title><g id="Livello_2" data-name="Livello 2"><g id="Livello_1-2" data-name="Livello 1"><g class="cls-2"><path class="cls-3" d="M62,0C63.51,0,65,1,66.21,3L123,101.7c2.33,4.05.42,7.37-4.24,7.37H5.24c-4.66,0-6.57-3.32-4.24-7.37L57.74,3C58.9,1,60.44,0,62,0Z" transform="translate(0)"/><g class="cls-2"><g class="cls-4"><g class="cls-2"><path class="cls-5" d="M127.31,101.7H123c2.33,4.05.42,7.37-4.24,7.37h4.36c4.66,0,6.57-3.32,4.24-7.37" transform="translate(0)"/></g></g></g><polygon class="cls-6" points="70.57 3.04 127.31 101.69 122.96 101.69 66.21 3.04 70.57 3.04"/><g class="cls-2"><g class="cls-7"><g class="cls-2"><path class="cls-8" d="M66.33,0H62a3.81,3.81,0,0,1,2,.58h4.36a3.81,3.81,0,0,0-2-.58" transform="translate(0)"/><path class="cls-9" d="M68.31.58H64A6.51,6.51,0,0,1,66.07,2.8h4.36A6.51,6.51,0,0,0,68.31.58" transform="translate(0)"/><path class="cls-5" d="M70.43,2.8H66.07l.14.24h4.36l-.14-.24" transform="translate(0)"/></g></g></g><g class="cls-2"><g class="cls-10"><g class="cls-2"><path class="cls-5" d="M62.1,3H57.74C58.9,1,60.44,0,62,0h4.36C64.8,0,63.26,1,62.1,3" transform="translate(0)"/></g></g></g><polygon class="cls-11" points="123.07 109.07 9.59 109.07 5.24 109.07 118.72 109.07 123.07 109.07"/><polygon class="cls-11" points="5.35 101.69 0.99 101.69 57.74 3.04 62.1 3.04 5.35 101.69"/><g class="cls-2"><g class="cls-12"><g class="cls-2"><path class="cls-8" d="M9.59,109.07H5.24a6.53,6.53,0,0,1-3.39-.81H6.21a6.53,6.53,0,0,0,3.39.81" transform="translate(0)"/><path class="cls-9" d="M6.21,108.26H1.85A3.82,3.82,0,0,1,.54,107H4.9a3.82,3.82,0,0,0,1.31,1.27" transform="translate(0)"/><path class="cls-5" d="M4.9,107H.54c-.83-1.34-.74-3.22.45-5.29H5.35c-1.19,2.07-1.28,3.95-.45,5.29" transform="translate(0)"/></g></g></g><path class="cls-3" d="M66.33,0c1.54,0,3.07,1,4.24,3l56.74,98.66c2.33,4.05.42,7.37-4.24,7.37H9.59c-4.66,0-6.57-3.32-4.24-7.37L62.1,3C63.26,1,64.8,0,66.33,0Z" transform="translate(0)"/></g></g></g></svg>