<svg xmlns="http://www.w3.org/2000/svg" xmlns:xlink="http://www.w3.org/1999/xlink" viewBox="0 0 117.32 113.39"><defs><style>.cls-1{fill:none;}.cls-2{isolation:isolate;}.cls-3{fill:#ffe900;}.cls-4{fill:#ebdd0e;}.cls-5{clip-path:url(#clip-path);}.cls-6{clip-path:url(#clip-path-2);}.cls-7{fill:#ebdd0f;}.cls-8{clip-path:url(#clip-path-3);}.cls-9{clip-path:url(#clip-path-4);}</style><clipPath id="clip-path"><path class="cls-1" d="M117.32,104.89a8.52,8.52,0,0,1-8.47,8.51h-4.36a8.52,8.52,0,0,0,8.47-8.51Z"/></clipPath><clipPath id="clip-path-2"><path class="cls-1" d="M108.84,0a8.52,8.52,0,0,1,8.47,8.51H113A8.52,8.52,0,0,0,104.49,0Z"/></clipPath><clipPath id="clip-path-3"><path class="cls-1" d="M12.83,113.39H8.47A8.52,8.52,0,0,1,0,104.89H4.36A8.52,8.52,0,0,0,12.83,113.39Z"/></clipPath><clipPath id="clip-path-4"><path class="cls-1" d="M4.36,8.51H0A8.51,8.51,0,0,1,8.47,0h4.36A8.51,8.51,0,0,0,4.36,8.51Z"/></clipPath></defs><title>Risorsa 2_1</title><g id="Livello_2" data-name="Livello 2"><g id="Livello_1-2" data-name="Livello 1"><g class="cls-2"><path class="cls-3" d="M104.49,0A8.52,8.52,0,0,1,113,8.51v96.38a8.52,8.52,0,0,1-8.47,8.51h-96A8.52,8.52,0,0,1,0,104.89V8.51A8.51,8.51,0,0,1,8.47,0Z"/><rect class="cls-4" x="112.96" y="8.51" width="4.36" height="96.38"/><g class="cls-2"><g class="cls-5"><g class="cls-2"><path class="cls-4" d="M117.32,104.89H113a8.52,8.52,0,0,1-8.47,8.51h4.36a8.52,8.52,0,0,0,8.47-8.51"/></g></g></g><g class="cls-2"><g class="cls-6"><g class="cls-2"><path class="cls-4" d="M108.84,0h-4.36A8.52,8.52,0,0,1,113,8.51h4.36A8.52,8.52,0,0,0,108.84,0"/></g></g></g><polygon class="cls-7" points="108.84 113.39 12.83 113.39 8.47 113.39 104.49 113.39 108.84 113.39"/><polygon class="cls-7" points="12.83 0 8.47 0 104.49 0 108.84 0 12.83 0"/><g class="cls-2"><g class="cls-8"><g class="cls-2"><path class="cls-4" d="M12.83,113.39H8.47A8.52,8.52,0,0,1,0,104.89H4.36a8.52,8.52,0,0,0,8.47,8.51"/></g></g></g><rect class="cls-4" y="8.51" width="4.36" height="96.38"/><path class="cls-3" d="M108.84,0a8.52,8.52,0,0,1,8.47,8.51v96.38a8.52,8.52,0,0,1-8.47,8.51h-96a8.52,8.52,0,0,1-8.47-8.51V8.51A8.51,8.51,0,0,1,12.83,0Z"/><g class="cls-2"><g class="cls-9"><g class="cls-2"><path class="cls-4" d="M4.36,8.51H0A8.51,8.51,0,0,1,8.47,0h4.36A8.51,8.51,0,0,0,4.36,8.51"/></g></g></g></g></g></g></svg>