<svg xmlns="http://www.w3.org/2000/svg" xmlns:xlink="http://www.w3.org/1999/xlink" viewBox="0 0 112.33 98.2"><defs><style>.cls-1{fill:none;}.cls-2{isolation:isolate;}.cls-3{fill:#560764;}.cls-4{clip-path:url(#clip-path);}.cls-5{fill:#590767;}.cls-6{clip-path:url(#clip-path-2);}.cls-7{clip-path:url(#clip-path-3);}.cls-8{fill:#ab0ec7;}</style><clipPath id="clip-path"><path class="cls-1" d="M38.58,98.2H34.22a16.28,16.28,0,0,1-12.71-7.37h4.36A16.28,16.28,0,0,0,38.58,98.2Z"/></clipPath><clipPath id="clip-path-2"><path class="cls-1" d="M25.87,7.36H21.51A16.27,16.27,0,0,1,34.22,0h4.36A16.27,16.27,0,0,0,25.87,7.36Z"/></clipPath><clipPath id="clip-path-3"><path class="cls-1" d="M6.11,56.47H1.75a16.39,16.39,0,0,1,0-14.73H6.11A16.39,16.39,0,0,0,6.11,56.47Z"/></clipPath></defs><title>Risorsa 8_2</title><g id="Livello_2" data-name="Livello 2"><g id="Livello_1-2" data-name="Livello 1"><g class="cls-2"><polygon class="cls-3" points="38.58 0 34.22 0 73.75 0 78.11 0 38.58 0"/><g class="cls-2"><g class="cls-4"><g class="cls-2"><path class="cls-5" d="M38.58,98.2H34.22a16.28,16.28,0,0,1-12.71-7.37h4.36A16.28,16.28,0,0,0,38.58,98.2"/></g></g></g><g class="cls-2"><g class="cls-6"><g class="cls-2"><path class="cls-5" d="M25.87,7.36H21.51A16.27,16.27,0,0,1,34.22,0h4.36A16.27,16.27,0,0,0,25.87,7.36"/></g></g></g><polygon class="cls-3" points="25.87 90.83 21.51 90.83 1.75 56.47 6.11 56.47 25.87 90.83"/><polygon class="cls-3" points="6.11 41.73 1.75 41.73 21.51 7.36 25.87 7.36 6.11 41.73"/><g class="cls-2"><g class="cls-7"><g class="cls-2"><path class="cls-5" d="M6.11,56.47H1.75a16.39,16.39,0,0,1,0-14.73H6.11a16.39,16.39,0,0,0,0,14.73"/></g></g></g><path class="cls-8" d="M78.11,0A16.27,16.27,0,0,1,90.82,7.36l19.76,34.37a16.39,16.39,0,0,1,0,14.73L90.82,90.83A16.28,16.28,0,0,1,78.11,98.2H38.58a16.28,16.28,0,0,1-12.71-7.37L6.11,56.47a16.39,16.39,0,0,1,0-14.73L25.87,7.36A16.27,16.27,0,0,1,38.58,0Z"/></g></g></g></svg>