<svg xmlns="http://www.w3.org/2000/svg" xmlns:xlink="http://www.w3.org/1999/xlink" viewBox="0 0 118.85 110.45"><defs><style>.cls-1{fill:none;}.cls-2{isolation:isolate;}.cls-3{fill:#ff7300;}.cls-4{clip-path:url(#clip-path);}.cls-5{fill:#bd3c00;}.cls-6{fill:#bb3a00;}.cls-7{clip-path:url(#clip-path-2);}.cls-8{fill:#ba3a00;}.cls-9{clip-path:url(#clip-path-3);}.cls-10{clip-path:url(#clip-path-4);}.cls-11{clip-path:url(#clip-path-5);}.cls-12{clip-path:url(#clip-path-6);}</style><clipPath id="clip-path"><path class="cls-1" d="M114.13,35.37a12.54,12.54,0,0,1,4.24,13.09H114a12.54,12.54,0,0,0-4.24-13.09Z"/></clipPath><clipPath id="clip-path-2"><path class="cls-1" d="M100.93,102.36a12.47,12.47,0,0,1-11.09,8.09H85.48a12.47,12.47,0,0,0,11.09-8.09Z"/></clipPath><clipPath id="clip-path-3"><path class="cls-1" d="M61.6,0a11.75,11.75,0,0,1,6.86,2.07H64.1A11.75,11.75,0,0,0,57.25,0Z"/></clipPath><clipPath id="clip-path-4"><path class="cls-1" d="M54.75,2.07H50.39A11.71,11.71,0,0,1,57.25,0H61.6A11.71,11.71,0,0,0,54.75,2.07Z"/></clipPath><clipPath id="clip-path-5"><path class="cls-1" d="M33.38,110.45H29a12.47,12.47,0,0,1-11.09-8.09h4.36A12.47,12.47,0,0,0,33.38,110.45Z"/></clipPath><clipPath id="clip-path-6"><path class="cls-1" d="M4.84,48.46H.48A12.52,12.52,0,0,1,4.72,35.37H9.08A12.52,12.52,0,0,0,4.84,48.46Z"/></clipPath></defs><title>Risorsa 1_1</title><g id="Livello_2" data-name="Livello 2"><g id="Livello_1-2" data-name="Livello 1"><g class="cls-2"><path class="cls-3" d="M57.25,0A11.75,11.75,0,0,1,64.1,2.07l45.67,33.31A12.54,12.54,0,0,1,114,48.46l-17.45,53.9a12.47,12.47,0,0,1-11.09,8.09H29a12.47,12.47,0,0,1-11.09-8.09L.48,48.46A12.52,12.52,0,0,1,4.72,35.37L50.39,2.07A11.71,11.71,0,0,1,57.25,0Z"/><g class="cls-2"><g class="cls-4"><g class="cls-2"><path class="cls-5" d="M114.13,35.37h-4.36A12.54,12.54,0,0,1,114,48.46h4.36a12.54,12.54,0,0,0-4.24-13.09"/></g></g></g><polygon class="cls-6" points="118.37 48.46 100.93 102.36 96.57 102.36 114.02 48.46 118.37 48.46"/><g class="cls-2"><g class="cls-7"><g class="cls-2"><path class="cls-5" d="M100.93,102.36H96.57a12.47,12.47,0,0,1-11.09,8.09h4.36a12.47,12.47,0,0,0,11.09-8.09"/></g></g></g><polygon class="cls-8" points="68.46 2.07 114.13 35.37 109.78 35.37 64.1 2.07 68.46 2.07"/><g class="cls-2"><g class="cls-9"><g class="cls-2"><path class="cls-5" d="M61.6,0H57.25A11.75,11.75,0,0,1,64.1,2.07h4.36A11.75,11.75,0,0,0,61.6,0"/></g></g></g><g class="cls-2"><g class="cls-10"><g class="cls-2"><path class="cls-5" d="M54.75,2.07H50.39A11.71,11.71,0,0,1,57.25,0H61.6a11.71,11.71,0,0,0-6.85,2.07"/></g></g></g><polygon class="cls-8" points="89.83 110.45 33.38 110.45 29.02 110.45 85.48 110.45 89.83 110.45"/><g class="cls-2"><g class="cls-11"><g class="cls-2"><path class="cls-5" d="M33.38,110.45H29a12.47,12.47,0,0,1-11.09-8.09h4.36a12.47,12.47,0,0,0,11.09,8.09"/></g></g></g><polygon class="cls-8" points="9.08 35.37 4.72 35.37 50.39 2.07 54.75 2.07 9.08 35.37"/><polygon class="cls-6" points="22.29 102.36 17.93 102.36 0.48 48.46 4.84 48.46 22.29 102.36"/><g class="cls-2"><g class="cls-12"><g class="cls-2"><path class="cls-5" d="M4.84,48.46H.48A12.52,12.52,0,0,1,4.72,35.37H9.08A12.52,12.52,0,0,0,4.84,48.46"/></g></g></g><path class="cls-3" d="M61.6,0a11.75,11.75,0,0,1,6.86,2.07l45.67,33.31a12.54,12.54,0,0,1,4.24,13.09l-17.45,53.9a12.47,12.47,0,0,1-11.09,8.09H33.38a12.47,12.47,0,0,1-11.09-8.09L4.84,48.46A12.52,12.52,0,0,1,9.08,35.37L54.75,2.07A11.71,11.71,0,0,1,61.6,0Z"/></g></g></g></svg>