<svg xmlns="http://www.w3.org/2000/svg" xmlns:xlink="http://www.w3.org/1999/xlink" viewBox="0 0 117.32 113.39"><defs><style>.cls-1{fill:none;}.cls-2{isolation:isolate;}.cls-3{fill:#06bde6;}.cls-4{clip-path:url(#clip-path);}.cls-5{fill:#0375be;}.cls-6{clip-path:url(#clip-path-2);}</style><clipPath id="clip-path"><path class="cls-1" d="M60.83,0a56.7,56.7,0,0,1,0,113.39H56.48A56.7,56.7,0,0,0,56.48,0Z"/></clipPath><clipPath id="clip-path-2"><path class="cls-1" d="M60.83,113.39H56.48A56.7,56.7,0,0,1,56.48,0h4.36a56.7,56.7,0,0,0,0,113.39Z"/></clipPath></defs><title>Risorsa 4_1</title><g id="Livello_2" data-name="Livello 2"><g id="Livello_1-2" data-name="Livello 1"><g class="cls-2"><ellipse class="cls-3" cx="56.48" cy="56.69" rx="56.48" ry="56.7"/><g class="cls-2"><g class="cls-4"><g class="cls-2"><path class="cls-5" d="M60.83,0H56.48a56.7,56.7,0,0,1,0,113.39h4.36A56.7,56.7,0,0,0,60.83,0"/></g></g></g><ellipse class="cls-3" cx="60.84" cy="56.69" rx="56.48" ry="56.7"/><g class="cls-2"><g class="cls-6"><g class="cls-2"><path class="cls-5" d="M60.83,113.39H56.48A56.7,56.7,0,0,1,56.48,0h4.36a56.7,56.7,0,0,0,0,113.39"/></g></g></g></g></g></g></svg>