<svg xmlns="http://www.w3.org/2000/svg" xmlns:xlink="http://www.w3.org/1999/xlink" viewBox="0 0 74.95 113.39"><defs><style>.cls-1{fill:none;}.cls-2{isolation:isolate;}.cls-3{fill:#0001fd;}.cls-4{fill:#004882;}.cls-5{clip-path:url(#clip-path);}.cls-6{fill:#004785;}.cls-7{clip-path:url(#clip-path-2);}.cls-8{fill:#004981;}.cls-9{clip-path:url(#clip-path-3);}.cls-10{clip-path:url(#clip-path-4);}</style><clipPath id="clip-path"><path class="cls-1" d="M75,104.89a8.51,8.51,0,0,1-8.46,8.51H62.13a8.51,8.51,0,0,0,8.46-8.51Z"/></clipPath><clipPath id="clip-path-2"><path class="cls-1" d="M66.49,0A8.51,8.51,0,0,1,75,8.51H70.6A8.51,8.51,0,0,0,62.13,0Z"/></clipPath><clipPath id="clip-path-3"><path class="cls-1" d="M12.83,113.39H8.47A8.52,8.52,0,0,1,0,104.89H4.36A8.52,8.52,0,0,0,12.83,113.39Z"/></clipPath><clipPath id="clip-path-4"><path class="cls-1" d="M4.36,8.51H0A8.52,8.52,0,0,1,8.47,0h4.36A8.52,8.52,0,0,0,4.36,8.51Z"/></clipPath></defs><title>Risorsa 5_2</title><g id="Livello_2" data-name="Livello 2"><g id="Livello_1-2" data-name="Livello 1"><g class="cls-2"><path class="cls-3" d="M62.13,0A8.51,8.51,0,0,1,70.6,8.51v96.38a8.51,8.51,0,0,1-8.46,8.51H8.47A8.52,8.52,0,0,1,0,104.89V8.51A8.52,8.52,0,0,1,8.47,0Z"/><rect class="cls-4" x="70.6" y="8.51" width="4.36" height="96.38"/><g class="cls-2"><g class="cls-5"><g class="cls-2"><path class="cls-6" d="M75,104.89H70.6a8.51,8.51,0,0,1-8.46,8.51h4.36A8.51,8.51,0,0,0,75,104.89"/></g></g></g><g class="cls-2"><g class="cls-7"><g class="cls-2"><path class="cls-6" d="M66.49,0H62.13A8.51,8.51,0,0,1,70.6,8.51H75A8.51,8.51,0,0,0,66.49,0"/></g></g></g><polygon class="cls-8" points="66.49 113.39 12.83 113.39 8.47 113.39 62.13 113.39 66.49 113.39"/><polygon class="cls-8" points="12.83 0 8.47 0 62.13 0 66.49 0 12.83 0"/><g class="cls-2"><g class="cls-9"><g class="cls-2"><path class="cls-6" d="M12.83,113.39H8.47A8.52,8.52,0,0,1,0,104.89H4.36a8.52,8.52,0,0,0,8.47,8.51"/></g></g></g><rect class="cls-4" y="8.51" width="4.36" height="96.38"/><path class="cls-3" d="M66.49,0A8.51,8.51,0,0,1,75,8.51v96.38a8.51,8.51,0,0,1-8.46,8.51H12.83a8.52,8.52,0,0,1-8.47-8.51V8.51A8.52,8.52,0,0,1,12.83,0Z"/><g class="cls-2"><g class="cls-10"><g class="cls-2"><path class="cls-6" d="M4.36,8.51H0A8.52,8.52,0,0,1,8.47,0h4.36A8.52,8.52,0,0,0,4.36,8.51"/></g></g></g></g></g></g></svg>