<svg xmlns="http://www.w3.org/2000/svg" xmlns:xlink="http://www.w3.org/1999/xlink" viewBox="0 0 113.33 99.19"><defs><style>.cls-1{fill:none;}.cls-2{isolation:isolate;}.cls-3{clip-path:url(#clip-path);}.cls-4{clip-path:url(#clip-path-2);}.cls-5{clip-path:url(#clip-path-3);}.cls-6{fill:#6a7e84;}.cls-7{clip-path:url(#clip-path-4);}.cls-8{fill:#63767b;}.cls-9{clip-path:url(#clip-path-5);}.cls-10{fill:#677b80;}.cls-11{fill:#6a7f85;}.cls-12{clip-path:url(#clip-path-6);}.cls-13{clip-path:url(#clip-path-7);}.cls-14{fill:#5f7277;}.cls-15{fill:#a8c9d2;}.cls-16{clip-path:url(#clip-path-8);}.cls-17{clip-path:url(#clip-path-9);}</style><clipPath id="clip-path"><path class="cls-1" d="M110.65,56.71h-4.36a15.78,15.78,0,0,0,0-14.23h4.36A15.78,15.78,0,0,1,110.65,56.71Z"/></clipPath><clipPath id="clip-path-2"><path class="cls-1" d="M78.61,98.19H74.25a15.69,15.69,0,0,0,12.27-7.11h4.36A15.69,15.69,0,0,1,78.61,98.19Z"/></clipPath><clipPath id="clip-path-3"><path class="cls-1" d="M90.88,8.11H86.52A15.66,15.66,0,0,0,74.25,1h4.36A15.66,15.66,0,0,1,90.88,8.11Z"/></clipPath><clipPath id="clip-path-4"><path class="cls-1" d="M39.08,98.19H34.72a15.67,15.67,0,0,1-12.27-7.11H26.8A15.67,15.67,0,0,0,39.08,98.19Z"/></clipPath><clipPath id="clip-path-5"><path class="cls-1" d="M26.8,8.11H22.45A15.65,15.65,0,0,1,34.72,1h4.36A15.65,15.65,0,0,0,26.8,8.11Z"/></clipPath><clipPath id="clip-path-6"><path class="cls-1" d="M39.08,99.19H34.72a16.78,16.78,0,0,1-13.14-7.61h4.36A16.78,16.78,0,0,0,39.08,99.19Z"/></clipPath><clipPath id="clip-path-7"><path class="cls-1" d="M25.93,7.61H21.58A16.78,16.78,0,0,1,34.72,0h4.36A16.78,16.78,0,0,0,25.93,7.61Z"/></clipPath><clipPath id="clip-path-8"><path class="cls-1" d="M7,56.71H2.68a15.78,15.78,0,0,1,0-14.23H7A15.78,15.78,0,0,0,7,56.71Z"/></clipPath><clipPath id="clip-path-9"><path class="cls-1" d="M6.17,57.2H1.82A16.87,16.87,0,0,1,1.82,42H6.17A16.87,16.87,0,0,0,6.17,57.2Z"/></clipPath></defs><title>Risorsa 10</title><g id="Livello_2" data-name="Livello 2"><g id="Livello_1-2" data-name="Livello 1"><g class="cls-2"><g class="cls-2"><g class="cls-3"><g class="cls-2"><path d="M110.65,56.71h-4.36a15.78,15.78,0,0,0,0-14.23h4.36a15.78,15.78,0,0,1,0,14.23"/></g></g></g><polygon points="90.88 91.08 86.52 91.08 106.29 56.71 110.65 56.71 90.88 91.08"/><polygon points="110.65 42.48 106.29 42.48 86.52 8.11 90.88 8.11 110.65 42.48"/><g class="cls-2"><g class="cls-4"><g class="cls-2"><path d="M78.61,98.19H74.25a10.73,10.73,0,0,0,1.58-.12h4.36a10.73,10.73,0,0,1-1.58.12"/><path d="M80.19,98.07H75.83a14.13,14.13,0,0,0,2.89-.77h4.36a14.13,14.13,0,0,1-2.89.77"/><path d="M83.08,97.3H78.72a15.58,15.58,0,0,0,7.8-6.22h4.36a15.58,15.58,0,0,1-7.8,6.22"/></g></g></g><g class="cls-2"><g class="cls-5"><g class="cls-2"><path d="M90.88,8.11H86.52A15.66,15.66,0,0,0,74.25,1h4.36A15.66,15.66,0,0,1,90.88,8.11"/></g></g></g><polygon class="cls-6" points="39.08 1 34.72 1 74.25 1 78.61 1 39.08 1"/><polygon points="39.08 98.19 34.72 98.19 74.25 98.19 78.61 98.19 39.08 98.19"/><polygon points="39.08 0 34.72 0 74.25 0 78.61 0 39.08 0"/><g class="cls-2"><g class="cls-7"><g class="cls-2"><path class="cls-8" d="M39.08,98.19H34.72a15.67,15.67,0,0,1-12.27-7.11H26.8a15.67,15.67,0,0,0,12.27,7.11"/></g></g></g><g class="cls-2"><g class="cls-9"><g class="cls-2"><path class="cls-8" d="M26.8,8.11H22.45a15.53,15.53,0,0,1,7.79-6.22h4.36A15.53,15.53,0,0,0,26.8,8.11"/><path class="cls-10" d="M34.59,1.89H30.24a14.14,14.14,0,0,1,2.9-.77h4.36a14.14,14.14,0,0,0-2.9.77"/><path class="cls-11" d="M37.49,1.12H33.13A10.79,10.79,0,0,1,34.72,1h4.36a10.79,10.79,0,0,0-1.59.12"/></g></g></g><g class="cls-2"><g class="cls-12"><g class="cls-2"><path d="M39.08,99.19H34.72a16.78,16.78,0,0,1-13.14-7.61h4.36a16.78,16.78,0,0,0,13.14,7.61"/></g></g></g><g class="cls-2"><g class="cls-13"><g class="cls-2"><path d="M25.93,7.61H21.58A16.68,16.68,0,0,1,29.93,1h4.36a16.68,16.68,0,0,0-8.35,6.66"/><path d="M34.29,1H29.93A15.12,15.12,0,0,1,33,.13h4.36a15.12,15.12,0,0,0-3.1.82"/><path d="M37.38.13H33A11.53,11.53,0,0,1,34.72,0h4.36a11.53,11.53,0,0,0-1.7.13"/></g></g></g><polygon class="cls-14" points="26.8 91.08 22.45 91.08 2.68 56.71 7.03 56.71 26.8 91.08"/><polygon class="cls-14" points="7.03 42.48 2.68 42.48 22.45 8.11 26.8 8.11 7.03 42.48"/><polygon points="25.93 91.58 21.58 91.58 1.82 57.2 6.17 57.2 25.93 91.58"/><polygon points="6.17 41.98 1.82 41.98 21.58 7.61 25.93 7.61 6.17 41.98"/><path class="cls-15" d="M78.61,1A15.66,15.66,0,0,1,90.88,8.11l19.77,34.37a15.78,15.78,0,0,1,0,14.23L90.88,91.08a15.69,15.69,0,0,1-12.27,7.11H39.08A15.67,15.67,0,0,1,26.8,91.08L7,56.71A15.78,15.78,0,0,1,7,42.48L26.8,8.11A15.65,15.65,0,0,1,39.08,1Z"/><g class="cls-2"><g class="cls-16"><g class="cls-2"><path class="cls-8" d="M7,56.71H2.68a15.78,15.78,0,0,1,0-14.23H7A15.78,15.78,0,0,0,7,56.71"/></g></g></g><g class="cls-2"><g class="cls-17"><g class="cls-2"><path d="M6.17,57.2H1.82A16.87,16.87,0,0,1,1.82,42H6.17a16.87,16.87,0,0,0,0,15.23"/></g></g></g><path d="M111.51,42a16.87,16.87,0,0,1,0,15.23L91.75,91.58a16.78,16.78,0,0,1-13.14,7.61H39.08a16.78,16.78,0,0,1-13.14-7.61L6.17,57.2A16.87,16.87,0,0,1,6.17,42L25.93,7.61A16.78,16.78,0,0,1,39.08,0H78.61A16.78,16.78,0,0,1,91.75,7.61Zm-.86,14.73a15.78,15.78,0,0,0,0-14.23L90.88,8.11A15.66,15.66,0,0,0,78.61,1H39.08A15.65,15.65,0,0,0,26.8,8.11L7,42.48A15.78,15.78,0,0,0,7,56.71L26.8,91.08a15.67,15.67,0,0,0,12.27,7.11H78.61a15.69,15.69,0,0,0,12.27-7.11l19.77-34.37"/></g></g></g></svg>