<svg xmlns="http://www.w3.org/2000/svg" xmlns:xlink="http://www.w3.org/1999/xlink" viewBox="0 0 90.07 114.38"><defs><style>.cls-1{fill:none;}.cls-2{isolation:isolate;}.cls-3{clip-path:url(#clip-path);}.cls-4{clip-path:url(#clip-path-2);}.cls-5{fill:#7d4d5c;}.cls-6{fill:#82505f;}.cls-7{fill:#865363;}.cls-8{fill:#d5839c;}.cls-9{clip-path:url(#clip-path-3);}</style><clipPath id="clip-path"><path class="cls-1" d="M47.21,113.38H42.86c23.09,0,41.86-25.21,41.86-56.2S65.94,1,42.86,1h4.36C70.3,1,89.08,26.21,89.08,57.19S70.3,113.38,47.21,113.38Z"/></clipPath><clipPath id="clip-path-2"><path class="cls-1" d="M47.21,113.38H42.86C19.78,113.38,1,88.17,1,57.19S19.78,1,42.86,1h4.36C24.14,1,5.36,26.21,5.36,57.19S24.14,113.38,47.21,113.38Z"/></clipPath><clipPath id="clip-path-3"><path class="cls-1" d="M47.21,114.38H42.86C19.23,114.38,0,88.72,0,57.19S19.23,0,42.86,0h4.36C23.59,0,4.36,25.65,4.36,57.19S23.59,114.38,47.21,114.38Z"/></clipPath></defs><title>Risorsa 8</title><g id="Livello_2" data-name="Livello 2"><g id="Livello_1-2" data-name="Livello 1"><g class="cls-2"><g class="cls-2"><g class="cls-3"><g class="cls-2"><path d="M47.21,113.38H42.86a31.53,31.53,0,0,0,4.66-.35h4.36a31.53,31.53,0,0,1-4.66.35"/><path d="M51.87,113H47.52a32.39,32.39,0,0,0,6.73-1.77H58.6A32.39,32.39,0,0,1,51.87,113"/><path d="M58.6,111.27H54.25c17.57-6.67,30.47-28.39,30.47-54.08C84.72,26.21,65.94,1,42.86,1h4.36C70.3,1,89.08,26.21,89.08,57.19c0,25.69-12.9,47.41-30.47,54.08"/></g></g></g><g class="cls-2"><g class="cls-4"><g class="cls-2"><path class="cls-5" d="M47.21,113.38H42.86C19.78,113.38,1,88.17,1,57.19,1,31.5,13.91,9.78,31.47,3.11h4.36C18.27,9.78,5.36,31.5,5.36,57.19c0,31,18.77,56.2,41.85,56.2"/><path class="cls-6" d="M35.83,3.11H31.47A32.38,32.38,0,0,1,38.2,1.34h4.36a32.38,32.38,0,0,0-6.73,1.77"/><path class="cls-7" d="M42.56,1.34H38.2A31.51,31.51,0,0,1,42.86,1h4.36a31.51,31.51,0,0,0-4.66.35"/></g></g></g><path class="cls-8" d="M47.21,1C70.3,1,89.08,26.21,89.08,57.19s-18.77,56.2-41.86,56.2S5.36,88.17,5.36,57.19,24.14,1,47.21,1Z"/><path d="M47.21,0C70.85,0,90.07,25.65,90.07,57.19s-19.22,57.19-42.86,57.19S4.36,88.72,4.36,57.19,23.59,0,47.21,0Zm0,113.38c23.09,0,41.86-25.21,41.86-56.2S70.3,1,47.21,1,5.36,26.21,5.36,57.19s18.77,56.2,41.85,56.2"/><g class="cls-2"><g class="cls-9"><g class="cls-2"><path d="M47.21,114.38H42.86C19.23,114.38,0,88.72,0,57.19,0,31.07,13.19,9,31.14,2.17h4.36C17.55,9,4.36,31.07,4.36,57.19c0,31.54,19.23,57.19,42.86,57.19"/><path d="M35.49,2.17H31.14A33.33,33.33,0,0,1,38.06.36h4.36a33.33,33.33,0,0,0-6.92,1.82"/><path d="M42.42.36H38.06A32.45,32.45,0,0,1,42.86,0h4.36a32.45,32.45,0,0,0-4.8.36"/></g></g></g></g></g></g></svg>