<svg xmlns="http://www.w3.org/2000/svg" xmlns:xlink="http://www.w3.org/1999/xlink" viewBox="0 0 61.84 114.38"><defs><style>.cls-1{fill:none;}.cls-2{isolation:isolate;}.cls-3{clip-path:url(#clip-path);}.cls-4{clip-path:url(#clip-path-2);}.cls-5{fill:#205e1d;}.cls-6{clip-path:url(#clip-path-3);}.cls-7{fill:#1e581c;}.cls-8{fill:#1d551b;}.cls-9{fill:#33972f;}.cls-10{clip-path:url(#clip-path-4);}.cls-11{fill:#1f5c1d;}.cls-12{fill:#205f1e;}.cls-13{clip-path:url(#clip-path-5);}.cls-14{clip-path:url(#clip-path-6);}</style><clipPath id="clip-path"><path class="cls-1" d="M52.86,113.38H48.5a8,8,0,0,0,8-8h4.36A8,8,0,0,1,52.86,113.38Z"/></clipPath><clipPath id="clip-path-2"><path class="cls-1" d="M60.84,9H56.48a8,8,0,0,0-8-8h4.36A8,8,0,0,1,60.84,9Z"/></clipPath><clipPath id="clip-path-3"><path class="cls-1" d="M2.21,109.62H6.57a8,8,0,0,0,6.76,3.76H9A8,8,0,0,1,2.21,109.62Z"/></clipPath><clipPath id="clip-path-4"><path class="cls-1" d="M5.35,9H1A8,8,0,0,1,9,1h4.36A8,8,0,0,0,5.35,9Z"/></clipPath><clipPath id="clip-path-5"><path class="cls-1" d="M13.33,114.38H9a9,9,0,0,1-9-9H4.36A9,9,0,0,0,13.33,114.38Z"/></clipPath><clipPath id="clip-path-6"><path class="cls-1" d="M4.36,9H0A9,9,0,0,1,9,0h4.36A9,9,0,0,0,4.36,9Z"/></clipPath></defs><title>Risorsa 7</title><g id="Livello_2" data-name="Livello 2"><g id="Livello_1-2" data-name="Livello 1"><g class="cls-2"><rect x="56.48" y="9" width="4.36" height="96.38"/><g class="cls-2"><g class="cls-3"><g class="cls-2"><path d="M52.86,113.38H48.5a8,8,0,0,0,1.18-.09H54a8,8,0,0,1-1.18.09"/><path d="M54,113.3H49.68a7.89,7.89,0,0,0,1.64-.43h4.36a7.89,7.89,0,0,1-1.64.43"/><path d="M55.67,112.87H51.32a8,8,0,0,0,5.17-7.49h4.36a8,8,0,0,1-5.17,7.49"/></g></g></g><g class="cls-2"><g class="cls-4"><g class="cls-2"><path d="M60.84,9H56.48a8,8,0,0,0-8-8h4.36a8,8,0,0,1,8,8"/></g></g></g><polygon class="cls-5" points="13.33 1 8.97 1 48.51 1 52.86 1 13.33 1"/><polygon points="13.33 113.38 8.97 113.38 48.51 113.38 52.86 113.38 13.33 113.38"/><polygon points="13.33 0 8.97 0 48.51 0 52.86 0 13.33 0"/><g class="cls-2"><g class="cls-6"><g class="cls-2"><path class="cls-7" d="M13.33,113.38H9a8,8,0,0,1-8-8H5.35a8,8,0,0,0,8,8"/></g></g></g><rect class="cls-8" x="1" y="9" width="4.36" height="96.38"/><path class="cls-9" d="M52.86,1a8,8,0,0,1,8,8v96.38a8,8,0,0,1-8,8H13.33a8,8,0,0,1-8-8V9a8,8,0,0,1,8-8Z"/><g class="cls-2"><g class="cls-10"><g class="cls-2"><path class="cls-7" d="M5.35,9H1A8,8,0,0,1,6.16,1.51h4.36A8,8,0,0,0,5.35,9"/><path class="cls-11" d="M10.52,1.51H6.16A7.89,7.89,0,0,1,7.8,1.09h4.36a7.89,7.89,0,0,0-1.64.43"/><path class="cls-12" d="M12.16,1.09H7.8A8,8,0,0,1,9,1h4.36a8,8,0,0,0-1.18.09"/></g></g></g><g class="cls-2"><g class="cls-13"><g class="cls-2"><path d="M13.33,114.38H9a9,9,0,0,1-9-9H4.36a9,9,0,0,0,9,9"/></g></g></g><rect y="9" width="4.36" height="96.38"/><g class="cls-2"><g class="cls-14"><g class="cls-2"><path d="M4.36,9H0A9,9,0,0,1,5.81.58h4.36A9,9,0,0,0,4.36,9"/><path d="M10.17.58H5.81A8.88,8.88,0,0,1,7.65.1H12a8.88,8.88,0,0,0-1.84.48"/><path d="M12,.1H7.65A9,9,0,0,1,9,0h4.36A9,9,0,0,0,12,.1"/></g></g></g><path d="M52.86,0a9,9,0,0,1,9,9v96.38a9,9,0,0,1-9,9H13.33a9,9,0,0,1-9-9V9a9,9,0,0,1,9-9Zm8,105.38V9a8,8,0,0,0-8-8H13.33a8,8,0,0,0-8,8v96.38a8,8,0,0,0,8,8H52.86a8,8,0,0,0,8-8"/></g></g></g></svg>