<svg xmlns="http://www.w3.org/2000/svg" xmlns:xlink="http://www.w3.org/1999/xlink" viewBox="0 0 83.1 105.39"><defs><style>.cls-1{fill:none;}.cls-2{isolation:isolate;}.cls-3{clip-path:url(#clip-path);}.cls-4{fill:#814509;}.cls-5{clip-path:url(#clip-path-2);}.cls-6{fill:#7e4309;}.cls-7{fill:#f98512;}.cls-8{clip-path:url(#clip-path-3);}</style><clipPath id="clip-path"><path class="cls-1" d="M43.73,105.39H39.37a6.38,6.38,0,0,1-5.08-2.8h4.36A6.38,6.38,0,0,0,43.73,105.39Z"/></clipPath><clipPath id="clip-path-2"><path class="cls-1" d="M38.65,2.81H34.29A6.38,6.38,0,0,1,39.37,0h4.36A6.38,6.38,0,0,0,38.65,2.81Z"/></clipPath><clipPath id="clip-path-3"><path class="cls-1" d="M6.46,59.5H2.1a12.08,12.08,0,0,1,0-13.61H6.46A12.08,12.08,0,0,0,6.46,59.5Z"/></clipPath></defs><title>Risorsa 10</title><g id="Livello_2" data-name="Livello 2"><g id="Livello_1-2" data-name="Livello 1"><g class="cls-2"><g class="cls-2"><g class="cls-3"><g class="cls-2"><path class="cls-4" d="M43.73,105.39H39.37a6.38,6.38,0,0,1-5.08-2.8h4.36a6.38,6.38,0,0,0,5.08,2.8"/></g></g></g><g class="cls-2"><g class="cls-5"><g class="cls-2"><path class="cls-4" d="M38.65,2.81H34.29A6.38,6.38,0,0,1,39.37,0h4.36a6.38,6.38,0,0,0-5.08,2.81"/></g></g></g><polygon class="cls-6" points="38.65 102.59 34.29 102.59 2.1 59.5 6.46 59.5 38.65 102.59"/><polygon class="cls-6" points="6.46 45.89 2.1 45.89 34.29 2.81 38.65 2.81 6.46 45.89"/><path class="cls-7" d="M43.73,0a6.38,6.38,0,0,1,5.08,2.81L81,45.89A12.08,12.08,0,0,1,81,59.5l-32.2,43.09a6,6,0,0,1-10.16,0L6.46,59.5a12.08,12.08,0,0,1,0-13.61L38.65,2.81A6.38,6.38,0,0,1,43.73,0Z"/><g class="cls-2"><g class="cls-8"><g class="cls-2"><path class="cls-4" d="M6.46,59.5H2.1a12.08,12.08,0,0,1,0-13.61H6.46a12.08,12.08,0,0,0,0,13.61"/></g></g></g></g></g></g></svg>