<svg xmlns="http://www.w3.org/2000/svg" xmlns:xlink="http://www.w3.org/1999/xlink" viewBox="0 0 118.3 114.38"><defs><style>.cls-1{fill:none;}.cls-2{isolation:isolate;}.cls-3{clip-path:url(#clip-path);}.cls-4{clip-path:url(#clip-path-2);}.cls-5{fill:#00375c;}.cls-6{fill:#005e9c;}.cls-7{clip-path:url(#clip-path-3);}.cls-8{fill:#00395f;}.cls-9{fill:#003b63;}.cls-10{clip-path:url(#clip-path-4);}</style><clipPath id="clip-path"><path class="cls-1" d="M61.33,113.38H57A56.19,56.19,0,0,0,57,1h4.36a56.19,56.19,0,0,1,0,112.38Z"/></clipPath><clipPath id="clip-path-2"><path class="cls-1" d="M3.6,74.15H8a56.1,56.1,0,0,0,53.37,39.23H57A56.1,56.1,0,0,1,3.6,74.15Z"/></clipPath><clipPath id="clip-path-3"><path class="cls-1" d="M1,57.19A56.15,56.15,0,0,1,57,1h4.36A56.23,56.23,0,0,0,8,74.15H3.6A56.2,56.2,0,0,1,1,57.19Z"/></clipPath><clipPath id="clip-path-4"><path class="cls-1" d="M61.33,114.38H57A57.19,57.19,0,0,1,57,0h4.36a57.19,57.19,0,0,0,0,114.38Z"/></clipPath></defs><title>Risorsa 6</title><g id="Livello_2" data-name="Livello 2"><g id="Livello_1-2" data-name="Livello 1"><g class="cls-2"><g class="cls-2"><g class="cls-3"><g class="cls-2"><path d="M61.33,113.38H57a56,56,0,0,0,8.23-.61h4.36a56,56,0,0,1-8.23.61"/><path d="M69.56,112.78H65.2a55.34,55.34,0,0,0,11.47-3H81a55.34,55.34,0,0,1-11.47,3"/><path d="M81,109.79H76.67A56.22,56.22,0,0,0,57,1h4.36A56.22,56.22,0,0,1,81,109.79"/></g></g></g><g class="cls-2"><g class="cls-4"><g class="cls-2"><path class="cls-5" d="M61.33,113.38H57A56.22,56.22,0,0,1,37.27,4.59h4.36A56.22,56.22,0,0,0,61.33,113.38"/></g></g></g><path class="cls-6" d="M61.33,1a56.19,56.19,0,1,1-56,56.19A56.15,56.15,0,0,1,61.33,1Z"/><g class="cls-2"><g class="cls-7"><g class="cls-2"><path class="cls-5" d="M61.33,113.38H57A56.22,56.22,0,0,1,37.27,4.59h4.36A56.22,56.22,0,0,0,61.33,113.38"/><path class="cls-8" d="M41.63,4.59H37.27a55.32,55.32,0,0,1,11.47-3H53.1a55.32,55.32,0,0,0-11.47,3"/><path class="cls-9" d="M53.1,1.6H48.74A56,56,0,0,1,57,1h4.36a56,56,0,0,0-8.23.61"/></g></g></g><g class="cls-2"><g class="cls-10"><g class="cls-2"><path d="M61.33,114.38H57A57.23,57.23,0,0,1,36.92,3.66h4.36A57.23,57.23,0,0,0,61.33,114.38"/><path d="M41.27,3.66H36.92a56.32,56.32,0,0,1,11.67-3h4.36a56.32,56.32,0,0,0-11.67,3"/><path d="M52.95.62H48.59A57,57,0,0,1,57,0h4.36a57,57,0,0,0-8.38.62"/></g></g></g><path d="M61.33,0a57.19,57.19,0,1,1-57,57.19A57.15,57.15,0,0,1,61.33,0Zm0,113.38a56.19,56.19,0,1,0-56-56.2,56.15,56.15,0,0,0,56,56.2"/></g></g></g></svg>