<svg xmlns="http://www.w3.org/2000/svg" xmlns:xlink="http://www.w3.org/1999/xlink" viewBox="0 0 118.85 110.45"><defs><style>.cls-1{fill:none;}.cls-2{isolation:isolate;}.cls-3{fill:#ffb6ff;}.cls-4{clip-path:url(#clip-path);}.cls-5{fill:#ff85ff;}.cls-6{fill:#ff8aff;}.cls-7{fill:#ff8fff;}.cls-8{fill:#ff94ff;}.cls-9{fill:#f9f;}.cls-10{fill:#ff9eff;}.cls-11{fill:#ffa3ff;}.cls-12{fill:#ffa8ff;}.cls-13{fill:#ffadff;}.cls-14{fill:#ffb3ff;}.cls-15{fill:#ffb8ff;}.cls-16{fill:#ffbdff;}.cls-17{clip-path:url(#clip-path-2);}.cls-18{fill:#ffc2ff;}.cls-19{fill:#ffc7ff;}.cls-20{fill:#fcf;}.cls-21{fill:#ff80ff;}.cls-22{clip-path:url(#clip-path-3);}.cls-23{clip-path:url(#clip-path-4);}.cls-24{clip-path:url(#clip-path-5);}.cls-25{fill:#ffcdff;}.cls-26{clip-path:url(#clip-path-6);}</style><clipPath id="clip-path"><path class="cls-1" d="M114.13,35.37a12.54,12.54,0,0,1,4.24,13.09H114a12.54,12.54,0,0,0-4.24-13.09Z"/></clipPath><clipPath id="clip-path-2"><path class="cls-1" d="M100.93,102.36a12.47,12.47,0,0,1-11.09,8.09H85.48a12.47,12.47,0,0,0,11.09-8.09Z"/></clipPath><clipPath id="clip-path-3"><path class="cls-1" d="M61.6,0a11.75,11.75,0,0,1,6.86,2.07H64.1A11.75,11.75,0,0,0,57.25,0Z"/></clipPath><clipPath id="clip-path-4"><path class="cls-1" d="M54.75,2.07H50.39A11.71,11.71,0,0,1,57.25,0H61.6A11.71,11.71,0,0,0,54.75,2.07Z"/></clipPath><clipPath id="clip-path-5"><path class="cls-1" d="M33.38,110.45H29a12.47,12.47,0,0,1-11.09-8.09h4.36A12.47,12.47,0,0,0,33.38,110.45Z"/></clipPath><clipPath id="clip-path-6"><path class="cls-1" d="M4.84,48.46H.48A12.52,12.52,0,0,1,4.72,35.37H9.08A12.52,12.52,0,0,0,4.84,48.46Z"/></clipPath></defs><title>Risorsa 4</title><g id="Livello_2" data-name="Livello 2"><g id="Livello_1-2" data-name="Livello 1"><g class="cls-2"><path class="cls-3" d="M57.25,0A11.75,11.75,0,0,1,64.1,2.07l45.67,33.31A12.54,12.54,0,0,1,114,48.46l-17.45,53.9a12.47,12.47,0,0,1-11.09,8.09H29a12.47,12.47,0,0,1-11.09-8.09L.48,48.46A12.52,12.52,0,0,1,4.72,35.37L50.39,2.07A11.71,11.71,0,0,1,57.25,0Z"/><g class="cls-2"><g class="cls-4"><g class="cls-2"><path class="cls-5" d="M114.13,35.37h-4.36a11,11,0,0,1,3.2,3.81h4.36a11,11,0,0,0-3.2-3.81"/><path class="cls-6" d="M117.33,39.19H113a13.3,13.3,0,0,1,.62,1.37h4.36a13.3,13.3,0,0,0-.62-1.37"/><path class="cls-7" d="M117.95,40.55h-4.36q.22.57.39,1.15h4.36q-.17-.59-.39-1.15"/><path class="cls-8" d="M118.34,41.71H114q.15.52.26,1h4.36q-.11-.53-.26-1"/><path class="cls-9" d="M118.59,42.75h-4.36q.1.47.16.94h4.36q-.06-.47-.16-.94"/><path class="cls-10" d="M118.75,43.7h-4.36q.06.44.08.87h4.36q0-.44-.08-.87"/><path class="cls-11" d="M118.83,44.57h-4.36q0,.41,0,.82h4.36q0-.41,0-.82"/><path class="cls-12" d="M118.85,45.39h-4.36q0,.39,0,.77h4.36q0-.38,0-.77"/><path class="cls-13" d="M118.82,46.15h-4.36q0,.37-.08.73h4.36q.05-.36.08-.73"/><path class="cls-14" d="M118.74,46.88h-4.36q-.05.35-.13.7h4.36q.08-.34.13-.7"/><path class="cls-15" d="M118.61,47.58h-4.36q-.08.35-.18.68h4.36q.1-.34.18-.68"/><path class="cls-16" d="M118.44,48.26h-4.36l-.06.2h4.36l.06-.2"/></g></g></g><polygon class="cls-16" points="118.37 48.46 100.93 102.36 96.57 102.36 114.02 48.46 118.37 48.46"/><g class="cls-2"><g class="cls-17"><g class="cls-2"><path class="cls-16" d="M100.93,102.36H96.57q-.08.25-.18.49h4.36q.09-.24.18-.49"/><path class="cls-18" d="M100.75,102.85H96.39q-.16.42-.36.82h4.36q.2-.4.36-.82"/><path class="cls-19" d="M100.39,103.68H96a10.8,10.8,0,0,1-.65,1.12h4.36a10.8,10.8,0,0,0,.65-1.12"/><path class="cls-20" d="M99.74,104.8H95.38A13.1,13.1,0,0,1,90.83,109h4.36a13.1,13.1,0,0,0,4.55-4.17"/><path class="cls-19" d="M95.19,109H90.83a12.78,12.78,0,0,1-1.37.66h4.36a12.78,12.78,0,0,0,1.37-.66"/><path class="cls-18" d="M93.82,109.63H89.46q-.52.21-1,.37h4.36q.53-.16,1-.37"/><path class="cls-16" d="M92.77,110H88.42q-.43.13-.87.23H91.9q.44-.09.87-.23"/><path class="cls-15" d="M91.9,110.23H87.54l-.76.13h4.36l.76-.13"/><path class="cls-14" d="M91.14,110.36H86.79l-.68.07h4.36l.68-.07"/><path class="cls-13" d="M90.46,110.43H86.1l-.63,0h4.36l.63,0"/></g></g></g><polygon class="cls-21" points="68.46 2.07 114.13 35.37 109.78 35.37 64.1 2.07 68.46 2.07"/><g class="cls-2"><g class="cls-22"><g class="cls-2"><path class="cls-5" d="M61.6,0H57.25A11.75,11.75,0,0,1,64.1,2.07h4.36A11.75,11.75,0,0,0,61.6,0"/></g></g></g><g class="cls-2"><g class="cls-23"><g class="cls-2"><path class="cls-20" d="M54.75,2.07H50.39a9.43,9.43,0,0,1,1-.64h4.36a9.43,9.43,0,0,0-1,.64"/><path class="cls-19" d="M55.75,1.43H51.39A10.45,10.45,0,0,1,52.52.89h4.36a10.45,10.45,0,0,0-1.13.54"/><path class="cls-18" d="M56.87.89H52.52q.49-.2,1-.35h4.36q-.51.15-1,.35"/><path class="cls-16" d="M57.87.54H53.52q.47-.14,1-.25h4.36q-.48.1-1,.25"/><path class="cls-15" d="M58.83.29H54.47q.46-.1.94-.17h4.36q-.47.07-.94.17"/><path class="cls-14" d="M59.77.13H55.41q.46-.06.92-.1h4.36q-.46,0-.92.1"/><path class="cls-13" d="M60.69,0H56.33q.45,0,.91,0H61.6q-.46,0-.91,0"/></g></g></g><polygon class="cls-12" points="89.83 110.45 33.38 110.45 29.02 110.45 85.48 110.45 89.83 110.45"/><g class="cls-2"><g class="cls-24"><g class="cls-2"><path class="cls-5" d="M33.38,110.45H29a12.6,12.6,0,0,1-10.44-6.56h4.36a12.6,12.6,0,0,0,10.44,6.56"/><path class="cls-6" d="M22.94,103.89H18.58a10,10,0,0,1-.47-1h4.36a10,10,0,0,0,.47,1"/><path class="cls-7" d="M22.47,102.86H18.11q-.1-.25-.18-.5h4.36q.08.25.18.5"/></g></g></g><polygon class="cls-25" points="9.08 35.37 4.72 35.37 50.39 2.07 54.75 2.07 9.08 35.37"/><polygon class="cls-7" points="22.29 102.36 17.93 102.36 0.48 48.46 4.84 48.46 22.29 102.36"/><g class="cls-2"><g class="cls-26"><g class="cls-2"><path class="cls-7" d="M4.84,48.46H.48l-.09-.3H4.75l.09.3"/><path class="cls-8" d="M4.75,48.16H.39q-.1-.36-.18-.74H4.57q.08.38.18.74"/><path class="cls-9" d="M4.57,47.42H.21q-.07-.37-.12-.74H4.45q0,.37.12.74"/><path class="cls-10" d="M4.45,46.68H.09q0-.37-.07-.76H4.38q0,.38.07.76"/><path class="cls-11" d="M4.38,45.93H0q0-.39,0-.78H4.36q0,.39,0,.78"/><path class="cls-12" d="M4.36,45.15H0q0-.41,0-.82H4.39q0,.41,0,.82"/><path class="cls-13" d="M4.39,44.33H0q0-.43.1-.86H4.49q-.06.43-.1.86"/><path class="cls-14" d="M4.49,43.47H.13Q.2,43,.3,42.56H4.66q-.1.45-.17.91"/><path class="cls-15" d="M4.66,42.56H.3q.11-.49.25-1H4.91q-.14.48-.25,1"/><path class="cls-16" d="M4.91,41.6H.55q.15-.52.35-1H5.26q-.2.51-.35,1"/><path class="cls-18" d="M5.26,40.57H.9q.22-.58.5-1.13H5.76q-.28.55-.5,1.13"/><path class="cls-19" d="M5.76,39.43H1.4a12.67,12.67,0,0,1,.75-1.31H6.51a12.67,12.67,0,0,0-.75,1.31"/><path class="cls-20" d="M6.51,38.13H2.15a10.53,10.53,0,0,1,2.57-2.75H9.08a10.53,10.53,0,0,0-2.57,2.75"/></g></g></g><path class="cls-3" d="M61.6,0a11.75,11.75,0,0,1,6.86,2.07l45.67,33.31a12.54,12.54,0,0,1,4.24,13.09l-17.45,53.9a12.47,12.47,0,0,1-11.09,8.09H33.38a12.47,12.47,0,0,1-11.09-8.09L4.84,48.46A12.52,12.52,0,0,1,9.08,35.37L54.75,2.07A11.71,11.71,0,0,1,61.6,0Z"/></g></g></g></svg>