<svg xmlns="http://www.w3.org/2000/svg" xmlns:xlink="http://www.w3.org/1999/xlink" viewBox="0 0 84.09 106.39"><defs><style>.cls-1{fill:none;}.cls-2{isolation:isolate;}.cls-3{clip-path:url(#clip-path);}.cls-4{clip-path:url(#clip-path-2);}.cls-5{clip-path:url(#clip-path-3);}.cls-6{clip-path:url(#clip-path-4);}.cls-7{fill:#7b4012;}.cls-8{clip-path:url(#clip-path-5);}.cls-9{fill:#7f4213;}.cls-10{fill:#844514;}.cls-11{clip-path:url(#clip-path-6);}.cls-12{clip-path:url(#clip-path-7);}.cls-13{fill:#763e12;}.cls-14{fill:#d16d1f;}.cls-15{clip-path:url(#clip-path-8);}.cls-16{clip-path:url(#clip-path-9);}</style><clipPath id="clip-path"><path class="cls-1" d="M81.1,59.7H76.74a11.52,11.52,0,0,0,0-13H81.1A11.52,11.52,0,0,1,81.1,59.7Z"/></clipPath><clipPath id="clip-path-2"><path class="cls-1" d="M44.22,105.39H39.86a5.89,5.89,0,0,0,4.69-2.61h4.36A5.89,5.89,0,0,1,44.22,105.39Z"/></clipPath><clipPath id="clip-path-3"><path class="cls-1" d="M48.91,3.6H44.55A5.91,5.91,0,0,0,39.86,1h4.36A5.91,5.91,0,0,1,48.91,3.6Z"/></clipPath><clipPath id="clip-path-4"><path class="cls-1" d="M39.86,105.39a5.89,5.89,0,0,1-4.68-2.61h4.36a5.89,5.89,0,0,0,4.68,2.61H39.86Z"/></clipPath><clipPath id="clip-path-5"><path class="cls-1" d="M39.54,3.6H35.18A5.9,5.9,0,0,1,39.86,1h4.36A5.9,5.9,0,0,0,39.54,3.6Z"/></clipPath><clipPath id="clip-path-6"><path class="cls-1" d="M44.22,106.39H39.86a6.88,6.88,0,0,1-5.48-3h4.36A6.88,6.88,0,0,0,44.22,106.39Z"/></clipPath><clipPath id="clip-path-7"><path class="cls-1" d="M38.74,3H34.39a6.85,6.85,0,0,1,5.48-3h4.36A6.85,6.85,0,0,0,38.74,3Z"/></clipPath><clipPath id="clip-path-8"><path class="cls-1" d="M7.35,59.7H3a11.55,11.55,0,0,1,0-13H7.35A11.55,11.55,0,0,0,7.35,59.7Z"/></clipPath><clipPath id="clip-path-9"><path class="cls-1" d="M6.56,60.3H2.2a12.58,12.58,0,0,1,0-14.21H6.56A12.58,12.58,0,0,0,6.56,60.3Z"/></clipPath></defs><title>Risorsa 9</title><g id="Livello_2" data-name="Livello 2"><g id="Livello_1-2" data-name="Livello 1"><g class="cls-2"><g class="cls-2"><g class="cls-3"><g class="cls-2"><path d="M81.1,59.7H76.74a11.52,11.52,0,0,0,0-13H81.1a11.52,11.52,0,0,1,0,13"/></g></g></g><polygon points="48.91 102.78 44.55 102.78 76.74 59.7 81.1 59.7 48.91 102.78"/><polygon points="81.1 46.69 76.74 46.69 44.55 3.6 48.91 3.6 81.1 46.69"/><g class="cls-2"><g class="cls-4"><g class="cls-2"><path d="M44.22,105.39H39.86a5,5,0,0,0,.74-.05H45a5,5,0,0,1-.74.05"/><path d="M45,105.34H40.6a5.14,5.14,0,0,0,1.06-.28H46a5.14,5.14,0,0,1-1.06.28"/><path d="M46,105.06H41.66a6.54,6.54,0,0,0,2.89-2.28h4.36A6.54,6.54,0,0,1,46,105.06"/></g></g></g><g class="cls-2"><g class="cls-5"><g class="cls-2"><path d="M48.91,3.6H44.55A5.91,5.91,0,0,0,39.86,1h4.36a5.91,5.91,0,0,1,4.69,2.6"/></g></g></g><g class="cls-2"><g class="cls-6"><g class="cls-2"><path class="cls-7" d="M44.22,105.39H39.86a5.89,5.89,0,0,1-4.68-2.61h4.36a5.89,5.89,0,0,0,4.68,2.61"/></g></g></g><g class="cls-2"><g class="cls-8"><g class="cls-2"><path class="cls-7" d="M39.54,3.6H35.18a6.56,6.56,0,0,1,2.89-2.27h4.36A6.56,6.56,0,0,0,39.54,3.6"/><path class="cls-9" d="M42.43,1.33H38.07a5.13,5.13,0,0,1,1.06-.28h4.36a5.13,5.13,0,0,0-1.06.28"/><path class="cls-10" d="M43.49,1.05H39.13A5,5,0,0,1,39.86,1h4.36a5,5,0,0,0-.73.05"/></g></g></g><g class="cls-2"><g class="cls-11"><g class="cls-2"><path d="M44.22,106.39H39.86a6.88,6.88,0,0,1-5.48-3h4.36a6.88,6.88,0,0,0,5.48,3"/></g></g></g><g class="cls-2"><g class="cls-12"><g class="cls-2"><path d="M38.74,3H34.39A7.52,7.52,0,0,1,37.71.39h4.36A7.52,7.52,0,0,0,38.74,3"/><path d="M42.07.39H37.71A6.11,6.11,0,0,1,39,.07h4.36a6.11,6.11,0,0,0-1.26.33"/><path d="M43.33.07H39A6,6,0,0,1,39.86,0h4.36a6,6,0,0,0-.89.07"/></g></g></g><polygon class="cls-13" points="39.54 102.78 35.18 102.78 2.99 59.7 7.35 59.7 39.54 102.78"/><polygon class="cls-13" points="7.35 46.69 2.99 46.69 35.18 3.6 39.54 3.6 7.35 46.69"/><polygon points="38.74 103.38 34.39 103.38 2.2 60.3 6.56 60.3 38.74 103.38"/><polygon points="6.56 46.09 2.2 46.09 34.39 3.01 38.74 3.01 6.56 46.09"/><path class="cls-14" d="M44.22,1a5.91,5.91,0,0,1,4.69,2.6L81.1,46.69a11.52,11.52,0,0,1,0,13L48.91,102.78a5.51,5.51,0,0,1-9.37,0L7.35,59.7a11.55,11.55,0,0,1,0-13L39.54,3.6A5.9,5.9,0,0,1,44.22,1Z"/><g class="cls-2"><g class="cls-15"><g class="cls-2"><path class="cls-7" d="M7.35,59.7H3a11.55,11.55,0,0,1,0-13H7.35a11.55,11.55,0,0,0,0,13"/></g></g></g><g class="cls-2"><g class="cls-16"><g class="cls-2"><path d="M6.56,60.3H2.2a12.58,12.58,0,0,1,0-14.21H6.56a12.58,12.58,0,0,0,0,14.21"/></g></g></g><path d="M81.9,46.09a12.58,12.58,0,0,1,0,14.21L49.71,103.38a6.5,6.5,0,0,1-11,0L6.56,60.3a12.58,12.58,0,0,1,0-14.21L38.74,3a6.5,6.5,0,0,1,11,0ZM81.1,59.7a11.52,11.52,0,0,0,0-13L48.91,3.6a5.52,5.52,0,0,0-9.37,0L7.35,46.69a11.55,11.55,0,0,0,0,13l32.2,43.08a5.51,5.51,0,0,0,9.37,0L81.1,59.7"/></g></g></g></svg>