<svg xmlns="http://www.w3.org/2000/svg" xmlns:xlink="http://www.w3.org/1999/xlink" viewBox="0 0 129.31 110.06"><defs><style>.cls-1{fill:none;}.cls-2{isolation:isolate;}.cls-3{clip-path:url(#clip-path);}.cls-4{clip-path:url(#clip-path-2);}.cls-5{clip-path:url(#clip-path-3);}.cls-6{clip-path:url(#clip-path-4);}.cls-7{fill:#761018;}.cls-8{fill:#7b1019;}.cls-9{fill:#7f111a;}.cls-10{clip-path:url(#clip-path-5);}.cls-11{fill:#720f18;}.cls-12{clip-path:url(#clip-path-6);}.cls-13{fill:#c91b2a;}.cls-14{clip-path:url(#clip-path-7);}</style><clipPath id="clip-path"><path class="cls-1" d="M127.89,107.14h-4.36c.71-1.23.53-2.9-.5-4.7h4.36C128.42,104.25,128.59,105.91,127.89,107.14Z"/></clipPath><clipPath id="clip-path-2"><path class="cls-1" d="M123.57,109.06h-4.36c2.07,0,3.6-.68,4.31-1.92h4.36C127.18,108.38,125.64,109.06,123.57,109.06Z"/></clipPath><clipPath id="clip-path-3"><path class="cls-1" d="M70.64,3.79H66.28C65.24,2,63.9,1,62.47,1h4.36C68.25,1,69.6,2,70.64,3.79Z"/></clipPath><clipPath id="clip-path-4"><path class="cls-1" d="M63,3.79H58.67C59.7,2,61.05,1,62.47,1h4.36C65.41,1,64.06,2,63,3.79Z"/></clipPath><clipPath id="clip-path-5"><path class="cls-1" d="M62.17,3.29H57.81C59,1.17,60.69,0,62.47,0h4.36C65,0,63.39,1.17,62.17,3.29Z"/></clipPath><clipPath id="clip-path-6"><path class="cls-1" d="M10.09,109.06H5.74c-2.07,0-3.6-.68-4.31-1.92s-.53-2.9.5-4.7H6.28c-1,1.8-1.21,3.46-.5,4.7S8,109.06,10.09,109.06Z"/></clipPath><clipPath id="clip-path-7"><path class="cls-1" d="M10.09,110.06H5.74c-2.44,0-4.28-.86-5.17-2.41s-.72-3.58.5-5.71H5.42c-1.22,2.12-1.4,4.15-.5,5.71S7.66,110.06,10.09,110.06Z"/></clipPath></defs><title>Risorsa 5</title><g id="Livello_2" data-name="Livello 2"><g id="Livello_1-2" data-name="Livello 1"><g class="cls-2"><g class="cls-2"><g class="cls-3"><g class="cls-2"><path d="M127.89,107.14h-4.36c.71-1.23.53-2.9-.5-4.7h4.36c1,1.8,1.21,3.47.5,4.7"/></g></g></g><g class="cls-2"><g class="cls-4"><g class="cls-2"><path d="M123.57,109.06h-4.36a8.16,8.16,0,0,0,1.2-.08h4.36a8.16,8.16,0,0,1-1.2.08"/><path d="M124.77,109h-4.36a5.9,5.9,0,0,0,1.22-.31H126a5.9,5.9,0,0,1-1.22.31"/><path d="M126,108.67h-4.36a3.56,3.56,0,0,0,1.9-1.53h4.36a3.56,3.56,0,0,1-1.9,1.53"/></g></g></g><polygon points="127.38 102.45 123.03 102.45 66.28 3.79 70.64 3.79 127.38 102.45"/><g class="cls-2"><g class="cls-5"><g class="cls-2"><path d="M70.64,3.79H66.28C65.24,2,63.9,1,62.47,1h4.36c1.43,0,2.77,1,3.81,2.79"/></g></g></g><g class="cls-2"><g class="cls-6"><g class="cls-2"><path class="cls-7" d="M63,3.79H58.67a5.57,5.57,0,0,1,2.68-2.58h4.36A5.57,5.57,0,0,0,63,3.79"/><path class="cls-8" d="M65.71,1.21H61.35A3.23,3.23,0,0,1,62,1h4.36a3.23,3.23,0,0,0-.67.18"/><path class="cls-9" d="M66.38,1H62a3,3,0,0,1,.45,0h4.36a3,3,0,0,0-.45,0"/></g></g></g><g class="cls-2"><g class="cls-10"><g class="cls-2"><path d="M62.17,3.29H57.81a6.55,6.55,0,0,1,3.2-3h4.36a6.55,6.55,0,0,0-3.2,3"/><path d="M65.37.27H61A4.19,4.19,0,0,1,61.87,0h4.36a4.19,4.19,0,0,0-.87.23"/><path d="M66.23,0H61.87a4.05,4.05,0,0,1,.6,0h4.36a4.05,4.05,0,0,0-.6,0"/></g></g></g><polygon points="10.09 109.06 5.74 109.06 119.22 109.06 123.57 109.06 10.09 109.06"/><polygon class="cls-11" points="6.28 102.45 1.93 102.45 58.67 3.79 63.03 3.79 6.28 102.45"/><polygon points="5.42 101.94 1.06 101.94 57.81 3.29 62.17 3.29 5.42 101.94"/><g class="cls-2"><g class="cls-12"><g class="cls-2"><path class="cls-7" d="M10.09,109.06H5.74c-2.07,0-3.6-.68-4.31-1.92s-.53-2.9.5-4.7H6.28c-1,1.8-1.21,3.46-.5,4.7s2.24,1.92,4.31,1.92"/></g></g></g><path class="cls-13" d="M66.83,1c1.43,0,2.77,1,3.81,2.79l56.74,98.66c1,1.8,1.21,3.46.5,4.7s-2.24,1.92-4.31,1.92H10.09c-2.07,0-3.6-.68-4.31-1.92s-.53-2.9.5-4.7L63,3.79C64.06,2,65.41,1,66.83,1Z"/><g class="cls-2"><g class="cls-14"><g class="cls-2"><path d="M10.09,110.06H5.74c-2.44,0-4.28-.86-5.17-2.41s-.72-3.58.5-5.71H5.42c-1.22,2.12-1.4,4.15-.5,5.71s2.73,2.41,5.17,2.41"/></g></g></g><path d="M128.24,101.94c1.22,2.12,1.4,4.15.5,5.71s-2.73,2.41-5.17,2.41H10.09c-2.44,0-4.28-.86-5.17-2.41s-.72-3.58.5-5.71L62.17,3.29C63.39,1.17,65,0,66.83,0s3.45,1.17,4.67,3.29Zm-.36,5.2c.71-1.23.53-2.9-.5-4.7L70.64,3.79C69.6,2,68.25,1,66.83,1S64.06,2,63,3.79L6.28,102.45c-1,1.8-1.21,3.47-.5,4.7s2.24,1.92,4.31,1.92H123.57c2.07,0,3.6-.68,4.31-1.92"/></g></g></g></svg>