<svg xmlns="http://www.w3.org/2000/svg" xmlns:xlink="http://www.w3.org/1999/xlink" viewBox="0 0 119.85 111.45"><defs><style>.cls-1{fill:none;}.cls-2{isolation:isolate;}.cls-3{clip-path:url(#clip-path);}.cls-4{clip-path:url(#clip-path-2);}.cls-5{clip-path:url(#clip-path-3);}.cls-6{clip-path:url(#clip-path-4);}.cls-7{fill:#780043;}.cls-8{fill:#7c0045;}.cls-9{fill:#810048;}.cls-10{clip-path:url(#clip-path-5);}.cls-11{clip-path:url(#clip-path-6);}.cls-12{clip-path:url(#clip-path-7);}.cls-13{fill:#740041;}.cls-14{fill:#730040;}.cls-15{fill:#cc0071;}.cls-16{clip-path:url(#clip-path-8);}.cls-17{clip-path:url(#clip-path-9);}</style><clipPath id="clip-path"><path class="cls-1" d="M118.4,48.81H114A12,12,0,0,0,110,36.28h4.36A12,12,0,0,1,118.4,48.81Z"/></clipPath><clipPath id="clip-path-2"><path class="cls-1" d="M90.33,110.45H86a11.91,11.91,0,0,0,10.62-7.74h4.36A11.91,11.91,0,0,1,90.33,110.45Z"/></clipPath><clipPath id="clip-path-3"><path class="cls-1" d="M68.66,3H64.3a11.26,11.26,0,0,0-6.56-2H62.1A11.26,11.26,0,0,1,68.66,3Z"/></clipPath><clipPath id="clip-path-4"><path class="cls-1" d="M55.55,3H51.19a11.23,11.23,0,0,1,6.55-2H62.1A11.23,11.23,0,0,0,55.55,3Z"/></clipPath><clipPath id="clip-path-5"><path class="cls-1" d="M55,2.16H50.6A12.23,12.23,0,0,1,57.75,0H62.1A12.23,12.23,0,0,0,55,2.16Z"/></clipPath><clipPath id="clip-path-6"><path class="cls-1" d="M29.52,110.45a11.91,11.91,0,0,1-10.62-7.74h4.36a11.91,11.91,0,0,0,10.62,7.74Z"/></clipPath><clipPath id="clip-path-7"><path class="cls-1" d="M33.88,111.45H29.52A13,13,0,0,1,18,103h4.36A13,13,0,0,0,33.88,111.45Z"/></clipPath><clipPath id="clip-path-8"><path class="cls-1" d="M5.81,48.81H1.45A12,12,0,0,1,5.51,36.28H9.87A12,12,0,0,0,5.81,48.81Z"/></clipPath><clipPath id="clip-path-9"><path class="cls-1" d="M4.86,49.11H.5A13,13,0,0,1,4.92,35.47H9.28A13,13,0,0,0,4.86,49.11Z"/></clipPath></defs><title>Risorsa 3</title><g id="Livello_2" data-name="Livello 2"><g id="Livello_1-2" data-name="Livello 1"><g class="cls-2"><g class="cls-2"><g class="cls-3"><g class="cls-2"><path d="M118.4,48.81H114A12,12,0,0,0,110,36.28h4.36a12,12,0,0,1,4.05,12.53"/></g></g></g><polygon points="100.95 102.71 96.59 102.71 114.04 48.81 118.4 48.81 100.95 102.71"/><g class="cls-2"><g class="cls-4"><g class="cls-2"><path d="M90.33,110.45H86a9.17,9.17,0,0,0,1.34-.1h4.36a9.17,9.17,0,0,1-1.34.1"/><path d="M91.68,110.35H87.32a10.67,10.67,0,0,0,2.2-.58h4.36a10.67,10.67,0,0,1-2.2.58"/><path d="M93.88,109.77H89.52a12,12,0,0,0,7.07-7.06h4.36a12,12,0,0,1-7.07,7.06"/></g></g></g><polygon points="114.34 36.28 109.98 36.28 64.31 2.96 68.66 2.96 114.34 36.28"/><g class="cls-2"><g class="cls-5"><g class="cls-2"><path d="M68.66,3H64.3a11.26,11.26,0,0,0-6.56-2H62.1a11.26,11.26,0,0,1,6.56,2"/></g></g></g><g class="cls-2"><g class="cls-6"><g class="cls-2"><path class="cls-7" d="M55.55,3H51.19a9.63,9.63,0,0,1,2.28-1.22h4.36A9.63,9.63,0,0,0,55.55,3"/><path class="cls-8" d="M57.82,1.75H53.47a11.69,11.69,0,0,1,2.41-.62h4.36a11.69,11.69,0,0,0-2.41.62"/><path class="cls-9" d="M60.23,1.13H55.87A12.76,12.76,0,0,1,57.74,1H62.1a12.76,12.76,0,0,0-1.87.14"/></g></g></g><g class="cls-2"><g class="cls-10"><g class="cls-2"><path d="M55,2.16H50.6A10.57,10.57,0,0,1,53.1.82h4.36A10.57,10.57,0,0,0,55,2.16"/><path d="M57.46.82H53.1A12.72,12.72,0,0,1,55.72.15h4.36a12.72,12.72,0,0,0-2.62.67"/><path d="M60.08.15H55.72a13.83,13.83,0,0,1,2-.15H62.1a13.83,13.83,0,0,0-2,.15"/></g></g></g><polygon points="33.88 110.45 29.52 110.45 85.97 110.45 90.33 110.45 33.88 110.45"/><g class="cls-2"><g class="cls-11"><g class="cls-2"><path class="cls-7" d="M33.88,110.45H29.52a11.91,11.91,0,0,1-10.62-7.74h4.36a11.91,11.91,0,0,0,10.62,7.74"/></g></g></g><g class="cls-2"><g class="cls-12"><g class="cls-2"><path d="M33.88,111.45H29.52A13,13,0,0,1,18,103h4.36a13,13,0,0,0,11.57,8.43"/></g></g></g><polygon class="cls-13" points="9.87 36.28 5.51 36.28 51.19 2.96 55.55 2.96 9.87 36.28"/><polygon points="9.28 35.47 4.92 35.47 50.6 2.16 54.95 2.16 9.28 35.47"/><polygon class="cls-14" points="23.26 102.71 18.9 102.71 1.46 48.81 5.81 48.81 23.26 102.71"/><polygon points="22.31 103.01 17.95 103.01 0.5 49.11 4.86 49.11 22.31 103.01"/><path class="cls-15" d="M62.1,1a11.26,11.26,0,0,1,6.56,2l45.68,33.32a12,12,0,0,1,4.05,12.53l-17.45,53.9a11.91,11.91,0,0,1-10.62,7.74H33.88a11.91,11.91,0,0,1-10.62-7.74L5.81,48.81A12,12,0,0,1,9.87,36.28L55.55,3A11.23,11.23,0,0,1,62.1,1Z"/><g class="cls-2"><g class="cls-16"><g class="cls-2"><path class="cls-7" d="M5.81,48.81H1.45A12,12,0,0,1,5.51,36.28H9.87A12,12,0,0,0,5.81,48.81"/></g></g></g><g class="cls-2"><g class="cls-17"><g class="cls-2"><path d="M4.86,49.11H.5A13,13,0,0,1,4.92,35.47H9.28A13,13,0,0,0,4.86,49.11"/></g></g></g><path d="M114.93,35.47a13,13,0,0,1,4.42,13.64L101.9,103a13,13,0,0,1-11.57,8.43H33.88A13,13,0,0,1,22.31,103L4.86,49.11A13,13,0,0,1,9.28,35.47L55,2.16a12.91,12.91,0,0,1,14.3,0Zm3.47,13.34a12,12,0,0,0-4.05-12.53L68.66,3A11.9,11.9,0,0,0,55.55,3L9.87,36.28A12,12,0,0,0,5.81,48.81l17.45,53.9a11.91,11.91,0,0,0,10.62,7.74H90.33a11.91,11.91,0,0,0,10.62-7.74l17.45-53.9"/></g></g></g></svg>