<svg xmlns="http://www.w3.org/2000/svg" xmlns:xlink="http://www.w3.org/1999/xlink" viewBox="0 0 118.3 114.38"><defs><style>.cls-1{fill:none;}.cls-2{isolation:isolate;}.cls-3{clip-path:url(#clip-path);}.cls-4{clip-path:url(#clip-path-2);}.cls-5{fill:#8e8400;}.cls-6{clip-path:url(#clip-path-3);}.cls-7{fill:#857b00;}.cls-8{clip-path:url(#clip-path-4);}.cls-9{clip-path:url(#clip-path-5);}.cls-10{clip-path:url(#clip-path-6);}.cls-11{fill:#807700;}.cls-12{clip-path:url(#clip-path-7);}.cls-13{fill:#8a8000;}.cls-14{fill:#8f8500;}.cls-15{fill:#e2d200;}.cls-16{clip-path:url(#clip-path-8);}.cls-17{clip-path:url(#clip-path-9);}</style><clipPath id="clip-path"><path class="cls-1" d="M109.34,113.38H105a8,8,0,0,0,8-8h4.36A8,8,0,0,1,109.34,113.38Z"/></clipPath><clipPath id="clip-path-2"><path class="cls-1" d="M117.31,9H113a8,8,0,0,0-8-8h4.36A8,8,0,0,1,117.31,9Z"/></clipPath><clipPath id="clip-path-3"><path class="cls-1" d="M8.73,113.38h0Z"/></clipPath><clipPath id="clip-path-4"><path class="cls-1" d="M5,112.3H9.33a7.89,7.89,0,0,0,3.76,1.08H8.73A7.89,7.89,0,0,1,5,112.3Z"/></clipPath><clipPath id="clip-path-5"><path class="cls-1" d="M3.15,110.84H7.5a8,8,0,0,0,1.82,1.46H5A8,8,0,0,1,3.15,110.84Z"/></clipPath><clipPath id="clip-path-6"><path class="cls-1" d="M1.17,107.05H5.53a8,8,0,0,0,2,3.79H3.15A8,8,0,0,1,1.17,107.05Z"/></clipPath><clipPath id="clip-path-7"><path class="cls-1" d="M5.35,9H1A8,8,0,0,1,9,1h4.36A8,8,0,0,0,5.35,9Z"/></clipPath><clipPath id="clip-path-8"><path class="cls-1" d="M13.32,114.38H9a9,9,0,0,1-9-9H4.36A9,9,0,0,0,13.32,114.38Z"/></clipPath><clipPath id="clip-path-9"><path class="cls-1" d="M4.36,9H0A9,9,0,0,1,9,0h4.36A9,9,0,0,0,4.36,9Z"/></clipPath></defs><title>Risorsa 4</title><g id="Livello_2" data-name="Livello 2"><g id="Livello_1-2" data-name="Livello 1"><g class="cls-2"><rect x="112.95" y="9" width="4.36" height="96.38"/><g class="cls-2"><g class="cls-3"><g class="cls-2"><path d="M109.34,113.38H105a8,8,0,0,0,1.17-.09h4.36a8,8,0,0,1-1.17.09"/><path d="M110.51,113.3h-4.36a7.88,7.88,0,0,0,1.63-.42h4.36a7.88,7.88,0,0,1-1.63.42"/><path d="M112.14,112.87h-4.36a8,8,0,0,0,5.17-7.49h4.36a8,8,0,0,1-5.17,7.49"/></g></g></g><g class="cls-2"><g class="cls-4"><g class="cls-2"><path d="M117.31,9H113a8,8,0,0,0-8-8h4.36a8,8,0,0,1,8,8"/></g></g></g><polygon class="cls-5" points="13.32 1 8.97 1 104.98 1 109.34 1 13.32 1"/><polygon points="13.32 113.38 8.97 113.38 104.98 113.38 109.34 113.38 13.32 113.38"/><polygon points="13.32 0 8.97 0 104.98 0 109.34 0 13.32 0"/><g class="cls-2"><g class="cls-6"><g class="cls-2"><path class="cls-7" d="M13.32,113.38H9a8,8,0,0,1-8-8H5.35a8,8,0,0,0,8,8"/></g></g></g><g class="cls-2"><g class="cls-8"><g class="cls-2"><path class="cls-7" d="M13.32,113.38H9a8,8,0,0,1-8-8H5.35a8,8,0,0,0,8,8"/></g></g></g><g class="cls-2"><g class="cls-9"><g class="cls-2"><path class="cls-7" d="M13.32,113.38H9a8,8,0,0,1-8-8H5.35a8,8,0,0,0,8,8"/></g></g></g><g class="cls-2"><g class="cls-10"><g class="cls-2"><path class="cls-7" d="M13.32,113.38H9a8,8,0,0,1-8-8H5.35a8,8,0,0,0,8,8"/></g></g></g><rect class="cls-11" x="1" y="9" width="4.36" height="96.38"/><g class="cls-2"><g class="cls-12"><g class="cls-2"><path class="cls-7" d="M5.35,9H1A8,8,0,0,1,6.16,1.51h4.36A8,8,0,0,0,5.35,9"/><path class="cls-13" d="M10.52,1.51H6.16a7.88,7.88,0,0,1,1.63-.42h4.36a7.88,7.88,0,0,0-1.63.42"/><path class="cls-14" d="M12.15,1.09H7.79A8,8,0,0,1,9,1h4.36a8,8,0,0,0-1.17.09"/></g></g></g><path d="M109.34,0a9,9,0,0,1,9,9v96.38a9,9,0,0,1-9,9h-96a9,9,0,0,1-9-9V9a9,9,0,0,1,9-9Zm8,105.38V9a8,8,0,0,0-8-8h-96a8,8,0,0,0-8,8v96.38a8,8,0,0,0,8,8h96a8,8,0,0,0,8-8"/><path class="cls-15" d="M109.34,1a8,8,0,0,1,8,8v96.38a8,8,0,0,1-8,8h-96a8,8,0,0,1-8-8V9a8,8,0,0,1,8-8Z"/><g class="cls-2"><g class="cls-16"><g class="cls-2"><path d="M13.32,114.38H9a9,9,0,0,1-9-9H4.36a9,9,0,0,0,9,9"/></g></g></g><rect y="9" width="4.36" height="96.38"/><g class="cls-2"><g class="cls-17"><g class="cls-2"><path d="M4.36,9H0A9,9,0,0,1,5.8.58h4.36A9,9,0,0,0,4.36,9"/><path d="M10.16.58H5.8A8.87,8.87,0,0,1,7.64.1H12a8.87,8.87,0,0,0-1.84.48"/><path d="M12,.1H7.64A9,9,0,0,1,9,0h4.36A9,9,0,0,0,12,.1"/></g></g></g></g></g></g></svg>