<svg id="Livello_1" data-name="Livello 1" xmlns="http://www.w3.org/2000/svg" viewBox="0 0 80.04 106.39"><defs><style>.cls-1{fill:none;stroke:#000;stroke-miterlimit:10;}</style></defs><title>Risorsa 7</title><path d="M33.45,77.67a12,12,0,0,1,0-13.61L65.76,21c2.81-3.74,7.4-3.74,10.2,0l32.31,43.09a12,12,0,0,1,0,13.61L76,120.75c-2.81,3.74-7.4,3.74-10.2,0Z" transform="translate(-30.84 -17.67)"/><path class="cls-1" d="M33.45,77.67a12,12,0,0,1,0-13.61L65.76,21c2.81-3.74,7.4-3.74,10.2,0l32.31,43.09a12,12,0,0,1,0,13.61L76,120.75c-2.81,3.74-7.4,3.74-10.2,0Z" transform="translate(-30.84 -17.67)"/></svg>