<svg id="Livello_1" data-name="Livello 1" xmlns="http://www.w3.org/2000/svg" viewBox="0 0 141.73 141.73"><defs><style>.cls-1{fill:white;}.cls-2{fill:none;stroke:#000;stroke-miterlimit:10;}</style></defs><title>Risorsa 8</title><path class="cls-1" d="M116.28,101.34A8.17,8.17,0,0,0,120,95V46.77a8.17,8.17,0,0,0-3.68-6.38L74.55,16.3a8.17,8.17,0,0,0-7.36,0L25.45,40.39a8.17,8.17,0,0,0-3.68,6.38V95a8.17,8.17,0,0,0,3.68,6.38l41.73,24.09a8.17,8.17,0,0,0,7.36,0Z"/><path class="cls-2" d="M116.28,101.34A8.17,8.17,0,0,0,120,95V46.77a8.17,8.17,0,0,0-3.68-6.38L74.55,16.3a8.17,8.17,0,0,0-7.36,0L25.45,40.39a8.17,8.17,0,0,0-3.68,6.38V95a8.17,8.17,0,0,0,3.68,6.38l41.73,24.09a8.17,8.17,0,0,0,7.36,0Z"/></svg>