<svg id="Livello_1" data-name="Livello 1" xmlns="http://www.w3.org/2000/svg" viewBox="0 0 109.39 99.2"><defs><style>.cls-1{fill:none;stroke:#000;stroke-miterlimit:10;}</style></defs><title>Risorsa 8</title><path d="M38.27,112.6A16.34,16.34,0,0,0,51,120H90.71a16.34,16.34,0,0,0,12.76-7.36l19.84-34.37a16.34,16.34,0,0,0,0-14.73L103.46,29.13a16.34,16.34,0,0,0-12.76-7.36H51a16.34,16.34,0,0,0-12.76,7.36L18.42,63.5a16.34,16.34,0,0,0,0,14.73Z" transform="translate(-16.17 -21.27)"/><path class="cls-1" d="M38.27,112.6A16.34,16.34,0,0,0,51,120H90.71a16.34,16.34,0,0,0,12.76-7.36l19.84-34.37a16.34,16.34,0,0,0,0-14.73L103.46,29.13a16.34,16.34,0,0,0-12.76-7.36H51a16.34,16.34,0,0,0-12.76,7.36L18.42,63.5a16.34,16.34,0,0,0,0,14.73Z" transform="translate(-16.17 -21.27)"/></svg>