<svg xmlns="http://www.w3.org/2000/svg" viewBox="0 0 115.93 111.45"><defs><style>.cls-1{fill:#e60080;}.cls-2{fill:none;stroke:#000;stroke-miterlimit:10;}</style></defs><title>Risorsa 01</title><g id="Livello_2" data-name="Livello 2"><g id="Livello_1-2" data-name="Livello 1"><path class="cls-1" d="M64.84,2.56a12.51,12.51,0,0,0-13.76,0L5.23,35.87A12.51,12.51,0,0,0,1,49l17.51,53.9a12.51,12.51,0,0,0,11.13,8.09H86.3a12.51,12.51,0,0,0,11.13-8.09L114.95,49a12.51,12.51,0,0,0-4.25-13.09Z"/><path class="cls-2" d="M64.84,2.56a12.51,12.51,0,0,0-13.76,0L5.23,35.87A12.51,12.51,0,0,0,1,49l17.51,53.9a12.51,12.51,0,0,0,11.13,8.09H86.3a12.51,12.51,0,0,0,11.13-8.09L114.95,49a12.51,12.51,0,0,0-4.25-13.09Z"/></g></g></svg>