<svg id="Livello_1" data-name="Livello 1" xmlns="http://www.w3.org/2000/svg" viewBox="0 0 141.73 141.73"><defs><style>.cls-1{fill:aqua;}.cls-2{fill:none;stroke:#000;stroke-miterlimit:10;}</style></defs><title>Risorsa 7</title><path class="cls-1" d="M30.9,74.27a6,6,0,0,1,0-6.8L68.31,17.57a3,3,0,0,1,5.1,0l37.42,49.89a6,6,0,0,1,0,6.8L73.42,124.16a3,3,0,0,1-5.1,0Z"/><path class="cls-2" d="M30.9,74.27a6,6,0,0,1,0-6.8L68.31,17.57a3,3,0,0,1,5.1,0l37.42,49.89a6,6,0,0,1,0,6.8L73.42,124.16a3,3,0,0,1-5.1,0Z"/></svg>