<svg id="Livello_1" data-name="Livello 1" xmlns="http://www.w3.org/2000/svg" viewBox="0 0 115.93 111.45"><defs><style>.cls-1{fill:none;stroke:#000;stroke-miterlimit:10;}</style></defs><title>Risorsa 1</title><path d="M77.75,19.17a12.51,12.51,0,0,0-13.76,0L18.14,52.48a12.51,12.51,0,0,0-4.25,13.09l17.51,53.9a12.51,12.51,0,0,0,11.13,8.09H99.2a12.51,12.51,0,0,0,11.13-8.09l17.51-53.9a12.51,12.51,0,0,0-4.25-13.09Z" transform="translate(-12.9 -16.61)"/><path class="cls-1" d="M77.75,19.17a12.51,12.51,0,0,0-13.76,0L18.14,52.48a12.51,12.51,0,0,0-4.25,13.09l17.51,53.9a12.51,12.51,0,0,0,11.13,8.09H99.2a12.51,12.51,0,0,0,11.13-8.09l17.51-53.9a12.51,12.51,0,0,0-4.25-13.09Z" transform="translate(-12.9 -16.61)"/></svg>