<svg xmlns="http://www.w3.org/2000/svg" xmlns:xlink="http://www.w3.org/1999/xlink" viewBox="0 0 89.08 113.39"><defs><style>.cls-1{fill:none;}.cls-2{isolation:isolate;}.cls-3{clip-path:url(#clip-path);}.cls-4{fill:#780085;}.cls-5{fill:#e600ff;}</style><clipPath id="clip-path"><path class="cls-1" d="M46.71,113.39H42.35C19,113.39,0,88,0,56.69S19,0,42.35,0h4.36C23.32,0,4.36,25.38,4.36,56.69S23.32,113.39,46.71,113.39Z"/></clipPath></defs><title>Risorsa 9</title><g id="Livello_2" data-name="Livello 2"><g id="Livello_1-2" data-name="Livello 1"><g class="cls-2"><g class="cls-2"><g class="cls-3"><g class="cls-2"><path class="cls-4" d="M46.71,113.39H42.35C19,113.39,0,88,0,56.69S19,0,42.35,0h4.36C23.32,0,4.36,25.38,4.36,56.69s19,56.7,42.35,56.7"/></g></g></g><path class="cls-5" d="M46.71,0c23.4,0,42.36,25.38,42.36,56.69s-19,56.7-42.36,56.7S4.36,88,4.36,56.69,23.32,0,46.71,0Z"/></g></g></g></svg>