<svg xmlns="http://www.w3.org/2000/svg" xmlns:xlink="http://www.w3.org/1999/xlink" viewBox="0 0 118.3 114.38"><defs><style>.cls-1{fill:none;}.cls-2{isolation:isolate;}.cls-3{fill:#0013ff;}.cls-4{fill:#0041a0;}.cls-5{clip-path:url(#clip-path);}.cls-6{fill:#00359a;}.cls-7{clip-path:url(#clip-path-2);}.cls-8{fill:#001dcb;}.cls-9{clip-path:url(#clip-path-3);}.cls-10{clip-path:url(#clip-path-4);}.cls-11{clip-path:url(#clip-path-5);}.cls-12{clip-path:url(#clip-path-6);}.cls-13{clip-path:url(#clip-path-7);}.cls-14{clip-path:url(#clip-path-8);}</style><clipPath id="clip-path"><path class="cls-1" d="M61.33,0a57.19,57.19,0,0,1,0,114.38H57A57.19,57.19,0,0,0,57,0Z"/></clipPath><clipPath id="clip-path-2"><path class="cls-1" d="M113,57.19A56.15,56.15,0,0,0,57,1h4.36a56.19,56.19,0,0,1,0,112.38H57A56.15,56.15,0,0,0,113,57.19Z"/></clipPath><clipPath id="clip-path-3"><path class="cls-1" d="M61.33,113.38H57A56.19,56.19,0,0,0,57,1h4.36a56.19,56.19,0,0,1,0,112.38Z"/></clipPath><clipPath id="clip-path-4"><path class="cls-1" d="M61.33,1a56.19,56.19,0,0,0,0,112.38H57A56.19,56.19,0,0,1,57,1Z"/></clipPath><clipPath id="clip-path-5"><path class="cls-1" d="M57,113.38A56.1,56.1,0,0,1,3.72,74.53H8.08a56.1,56.1,0,0,0,53.24,38.85Z"/></clipPath><clipPath id="clip-path-6"><path class="cls-1" d="M57,113.38h0Z"/></clipPath><clipPath id="clip-path-7"><path class="cls-1" d="M1,57.19A56.15,56.15,0,0,1,57,1h4.36A56.23,56.23,0,0,0,8,74.15H3.6A56.2,56.2,0,0,1,1,57.19Z"/></clipPath><clipPath id="clip-path-8"><path class="cls-1" d="M61.33,114.38H57A57.19,57.19,0,0,1,57,0h4.36a57.19,57.19,0,0,0,0,114.38Z"/></clipPath></defs><title>Risorsa 5</title><g id="Livello_2" data-name="Livello 2"><g id="Livello_1-2" data-name="Livello 1"><g class="cls-2"><path class="cls-3" d="M57,1A56.19,56.19,0,1,1,1,57.19,56.15,56.15,0,0,1,57,1Z"/><path class="cls-4" d="M57,0A57.19,57.19,0,1,1,0,57.19,57.15,57.15,0,0,1,57,0Zm0,113.38A56.19,56.19,0,1,0,1,57.19a56.15,56.15,0,0,0,56,56.2"/><g class="cls-2"><g class="cls-5"><g class="cls-2"><path class="cls-6" d="M61.33,0H57a57.19,57.19,0,0,1,0,114.38h4.36A57.19,57.19,0,0,0,61.33,0"/></g></g></g><g class="cls-2"><g class="cls-7"><g class="cls-2"><path class="cls-8" d="M61.33,1H57a56.19,56.19,0,0,1,0,112.38h4.36A56.19,56.19,0,0,0,61.33,1"/></g></g></g><g class="cls-2"><g class="cls-9"><g class="cls-2"><path class="cls-6" d="M61.33,113.38H57A56.19,56.19,0,0,0,57,1h4.36a56.19,56.19,0,0,1,0,112.38"/></g></g></g><g class="cls-2"><g class="cls-10"><g class="cls-2"><path class="cls-6" d="M61.33,1H57a56.19,56.19,0,0,0,0,112.38h4.36A56.19,56.19,0,0,1,61.33,1"/></g></g></g><g class="cls-2"><g class="cls-11"><g class="cls-2"><path class="cls-8" d="M61.33,113.38H57A56.19,56.19,0,0,1,57,1h4.36a56.19,56.19,0,0,0,0,112.38"/></g></g></g><g class="cls-2"><g class="cls-12"><g class="cls-2"><path class="cls-8" d="M61.33,1H57a56.19,56.19,0,0,1,0,112.38h4.36A56.19,56.19,0,0,0,61.33,1"/></g></g></g><g class="cls-2"><g class="cls-13"><g class="cls-2"><path class="cls-8" d="M61.33,113.38H57A56.19,56.19,0,0,1,57,1h4.36a56.19,56.19,0,0,0,0,112.38"/></g></g></g><path class="cls-3" d="M61.33,1a56.19,56.19,0,1,1-56,56.19A56.15,56.15,0,0,1,61.33,1Z"/><g class="cls-2"><g class="cls-14"><g class="cls-2"><path class="cls-6" d="M61.33,114.38H57A57.19,57.19,0,0,1,57,0h4.36a57.19,57.19,0,0,0,0,114.38"/></g></g></g><path class="cls-4" d="M61.33,0a57.19,57.19,0,1,1-57,57.19A57.15,57.15,0,0,1,61.33,0Zm0,113.38a56.19,56.19,0,1,0-56-56.2,56.15,56.15,0,0,0,56,56.2"/></g></g></g></svg>