<svg xmlns="http://www.w3.org/2000/svg" viewBox="0 0 80.04 106.39"><defs><style>.cls-1{fill:#ec7b23;}.cls-2{fill:none;stroke:#000;stroke-miterlimit:10;}</style></defs><title>Risorsa 07</title><g id="Livello_2" data-name="Livello 2"><g id="Livello_1-2" data-name="Livello 1"><path class="cls-1" d="M2.6,60a12,12,0,0,1,0-13.61L34.92,3.31c2.81-3.74,7.4-3.74,10.2,0L77.44,46.39a12,12,0,0,1,0,13.61L45.12,103.09c-2.81,3.74-7.4,3.74-10.2,0Z"/><path class="cls-2" d="M2.6,60a12,12,0,0,1,0-13.61L34.92,3.31c2.81-3.74,7.4-3.74,10.2,0L77.44,46.39a12,12,0,0,1,0,13.61L45.12,103.09c-2.81,3.74-7.4,3.74-10.2,0Z"/></g></g></svg>