<svg xmlns="http://www.w3.org/2000/svg" viewBox="0 0 109.39 99.2"><defs><style>.cls-1{fill:#bee3ed;}.cls-2{fill:none;stroke:#000;stroke-miterlimit:10;}</style></defs><title>Risorsa 08</title><g id="Livello_2" data-name="Livello 2"><g id="Livello_1-2" data-name="Livello 1"><path class="cls-1" d="M22.1,91.33A16.34,16.34,0,0,0,34.85,98.7H74.54a16.34,16.34,0,0,0,12.76-7.36L107.14,57a16.34,16.34,0,0,0,0-14.73L87.29,7.86A16.34,16.34,0,0,0,74.54.5H34.85A16.34,16.34,0,0,0,22.1,7.86L2.25,42.23A16.34,16.34,0,0,0,2.25,57Z"/><path class="cls-2" d="M22.1,91.33A16.34,16.34,0,0,0,34.85,98.7H74.54a16.34,16.34,0,0,0,12.76-7.36L107.14,57a16.34,16.34,0,0,0,0-14.73L87.29,7.86A16.34,16.34,0,0,0,74.54.5H34.85A16.34,16.34,0,0,0,22.1,7.86L2.25,42.23A16.34,16.34,0,0,0,2.25,57Z"/></g></g></svg>