<svg id="Livello_1" data-name="Livello 1" xmlns="http://www.w3.org/2000/svg" viewBox="0 0 141.73 141.73"><defs><style>.cls-1{fill:none;stroke:#000;stroke-miterlimit:10;}</style></defs><title>Risorsa 1</title><path d="M74.31,16.67a6.25,6.25,0,0,0-6.88,0L14.7,55a6.25,6.25,0,0,0-2.13,6.54l20.14,62a6.25,6.25,0,0,0,5.57,4h65.18a6.25,6.25,0,0,0,5.57-4l20.14-62A6.25,6.25,0,0,0,127,55Z"/><path class="cls-1" d="M74.31,16.67a6.25,6.25,0,0,0-6.88,0L14.7,55a6.25,6.25,0,0,0-2.13,6.54l20.14,62a6.25,6.25,0,0,0,5.57,4h65.18a6.25,6.25,0,0,0,5.57-4l20.14-62A6.25,6.25,0,0,0,127,55Z"/></svg>